  0
SECTION
  2
HEADER
  9
$ACADVER
  1
AC1014
  9
$HANDSEED
  5
FFFF
  9
$INSUNITS
 70
     4
  9
$MEASUREMENT
 70
     1
  0
ENDSEC
  0
SECTION
  2
TABLES
  0
TABLE
  2
VPORT
  5
8
330
0
100
AcDbSymbolTable
 70
     4
  0
VPORT
  5
2E
330
8
100
AcDbSymbolTableRecord
100
AcDbViewportTableRecord
  2
*ACTIVE
 70
     0
 10
0.0
 20
0.0
 11
1.0
 21
1.0
 12
210.0
 22
148.5
 13
0.0
 23
0.0
 14
10.0
 24
10.0
 15
10.0
 25
10.0
 16
0.0
 26
0.0
 36
1.0
 17
0.0
 27
0.0
 37
0.0
 40
341.0
 41
1.24
 42
50.0
 43
0.0
 44
0.0
 50
0.0
 51
0.0
 71
     0
 72
   100
 73
     1
 74
     3
 75
     0
 76
     0
 77
     0
 78
     0
  0
ENDTAB
  0
TABLE
  2
LTYPE
  5
5
330
0
100
AcDbSymbolTable
 70
     1
  0
LTYPE
  5
14
330
5
100
AcDbSymbolTableRecord
100
AcDbLinetypeTableRecord
  2
BYBLOCK
 70
     0
  3

 72
    65
 73
     0
 40
0.0
  0
LTYPE
  5
15
330
5
100
AcDbSymbolTableRecord
100
AcDbLinetypeTableRecord
  2
BYLAYER
 70
     0
  3

 72
    65
 73
     0
 40
0.0
  0
LTYPE
  5
16
330
5
100
AcDbSymbolTableRecord
100
AcDbLinetypeTableRecord
  2
CONTINUOUS
 70
     0
  3
Solid line
 72
    65
 73
     0
 40
0.0
  0
ENDTAB
  0
TABLE
  2
LAYER
  5
2
100
AcDbSymbolTable
 70
2
  0
LAYER
  5
50
100
AcDbSymbolTableRecord
100
AcDbLayerTableRecord
  2
0
 70
0
  6
CONTINUOUS
  0
LAYER
  5
51
100
AcDbSymbolTableRecord
100
AcDbLayerTableRecord
  2
Calque_1
 70
0
  6
CONTINUOUS
  0
ENDTAB
  0
TABLE
  2
STYLE
  5
3
330
0
100
AcDbSymbolTable
 70
     1
  0
STYLE
  5
11
330
3
100
AcDbSymbolTableRecord
100
AcDbTextStyleTableRecord
  2
STANDARD
 70
     0
 40
0.0
 41
1.0
 50
0.0
 71
     0
 42
2.5
  3
txt
  4

  0
ENDTAB
  0
TABLE
  2
VIEW
  5
6
330
0
100
AcDbSymbolTable
 70
     0
  0
ENDTAB
  0
TABLE
  2
UCS
  5
7
330
0
100
AcDbSymbolTable
 70
     0
  0
ENDTAB
  0
TABLE
  2
APPID
  5
9
330
0
100
AcDbSymbolTable
 70
     2
  0
APPID
  5
12
330
9
100
AcDbSymbolTableRecord
100
AcDbRegAppTableRecord
  2
ACAD
 70
     0
  0
ENDTAB
  0
TABLE
  2
DIMSTYLE
  5
A
330
0
100
AcDbSymbolTable
 70
     1
  0
DIMSTYLE
105
27
330
A
100
AcDbSymbolTableRecord
100
AcDbDimStyleTableRecord
  2
ISO-25
 70
     0
  3

  4

  5

  6

  7

 40
1.0
 41
2.5
 42
0.625
 43
3.75
 44
1.25
 45
0.0
 46
0.0
 47
0.0
 48
0.0
140
2.5
141
2.5
142
0.0
143
0.03937007874016
144
1.0
145
0.0
146
1.0
147
0.625
 71
     0
 72
     0
 73
     0
 74
     0
 75
     0
 76
     0
 77
     1
 78
     8
170
     0
171
     3
172
     1
173
     0
174
     0
175
     0
176
     0
177
     0
178
     0
270
     2
271
     2
272
     2
273
     2
274
     3
340
11
275
     0
280
     0
281
     0
282
     0
283
     0
284
     8
285
     0
286
     0
287
     3
288
     0
  0
ENDTAB
  0
TABLE
  2
BLOCK_RECORD
  5
1
330
0
100
AcDbSymbolTable
 70
     1
  0
BLOCK_RECORD
  5
1F
330
1
100
AcDbSymbolTableRecord
100
AcDbBlockTableRecord
  2
*MODEL_SPACE
  0
BLOCK_RECORD
  5
1B
330
1
100
AcDbSymbolTableRecord
100
AcDbBlockTableRecord
  2
*PAPER_SPACE
  0
ENDTAB
  0
ENDSEC
  0
SECTION
  2
BLOCKS
  0
BLOCK
  5
20
330
1F
100
AcDbEntity
  8
0
100
AcDbBlockBegin
  2
*MODEL_SPACE
 70
     0
 10
0.0
 20
0.0
 30
0.0
  3
*MODEL_SPACE
  1

  0
ENDBLK
  5
21
330
1F
100
AcDbEntity
  8
0
100
AcDbBlockEnd
  0
BLOCK
  5
1C
330
1B
100
AcDbEntity
 67
     1
  8
0
100
AcDbBlockBegin
  2
*PAPER_SPACE
  1

  0
ENDBLK
  5
1D
330
1B
100
AcDbEntity
 67
     1
  8
0
100
AcDbBlockEnd
  0
ENDSEC
  0
SECTION
  2
ENTITIES
  0
SPLINE
  5
100
100
AcDbEntity
  8
Calque_1
 62
7
100
AcDbSpline
 70
8
 71
3
 72
8
 73
4
 74
0
 40
0
 40
0
 40
0
 40
0
 40
1
 40
1
 40
1
 40
1
 10
77.876452
 20
140.263850
 30
0.0
 10
76.168944
 20
136.996030
 30
0.0
 10
74.078718
 20
135.111880
 30
0.0
 10
72.459529
 20
135.111880
 30
0.0
  0
SPLINE
  5
101
100
AcDbEntity
  8
Calque_1
 62
7
100
AcDbSpline
 70
8
 71
3
 72
8
 73
4
 74
0
 40
0
 40
0
 40
0
 40
0
 40
1
 40
1
 40
1
 40
1
 10
72.459529
 20
135.111880
 30
0.0
 10
71.399696
 20
135.111880
 30
0.0
 10
70.280984
 20
136.230590
 30
0.0
 10
70.280984
 20
138.762420
 30
0.0
  0
SPLINE
  5
102
100
AcDbEntity
  8
Calque_1
 62
7
100
AcDbSpline
 70
8
 71
3
 72
8
 73
4
 74
0
 40
0
 40
0
 40
0
 40
0
 40
1
 40
1
 40
1
 40
1
 10
70.280984
 20
138.762420
 30
0.0
 10
70.280984
 20
140.528800
 30
0.0
 10
70.840340
 20
142.942870
 30
0.0
 10
72.135691
 20
145.033090
 30
0.0
  0
SPLINE
  5
103
100
AcDbEntity
  8
Calque_1
 62
7
100
AcDbSpline
 70
8
 71
3
 72
8
 73
4
 74
0
 40
0
 40
0
 40
0
 40
0
 40
1
 40
1
 40
1
 40
1
 10
72.135691
 20
145.033090
 30
0.0
 10
74.579194
 20
148.978030
 30
0.0
 10
78.759646
 20
151.539290
 30
0.0
 10
79.466201
 20
150.773850
 30
0.0
  0
SPLINE
  5
104
100
AcDbEntity
  8
Calque_1
 62
7
100
AcDbSpline
 70
8
 71
3
 72
8
 73
4
 74
0
 40
0
 40
0
 40
0
 40
0
 40
1
 40
1
 40
1
 40
1
 10
79.466201
 20
150.773850
 30
0.0
 10
79.819479
 20
150.391140
 30
0.0
 10
79.466201
 20
149.449060
 30
0.0
 10
79.054044
 20
148.418670
 30
0.0
  0
SPLINE
  5
105
100
AcDbEntity
  8
Calque_1
 62
7
100
AcDbSpline
 70
8
 71
3
 72
8
 73
4
 74
0
 40
0
 40
0
 40
0
 40
0
 40
1
 40
1
 40
1
 40
1
 10
79.054044
 20
148.418670
 30
0.0
 10
78.877405
 20
147.977070
 30
0.0
 10
78.671327
 20
147.506040
 30
0.0
 10
78.553568
 20
147.064440
 30
0.0
  0
SPLINE
  5
106
100
AcDbEntity
  8
Calque_1
 62
7
100
AcDbSpline
 70
8
 71
3
 72
8
 73
4
 74
0
 40
0
 40
0
 40
0
 40
0
 40
1
 40
1
 40
1
 40
1
 10
78.553568
 20
147.064440
 30
0.0
 10
78.435808
 20
146.681720
 30
0.0
 10
78.376929
 20
146.328440
 30
0.0
 10
78.376929
 20
145.975170
 30
0.0
  0
SPLINE
  5
107
100
AcDbEntity
  8
Calque_1
 62
7
100
AcDbSpline
 70
8
 71
3
 72
8
 73
4
 74
0
 40
0
 40
0
 40
0
 40
0
 40
1
 40
1
 40
1
 40
1
 10
78.376929
 20
145.975170
 30
0.0
 10
78.376929
 20
145.121410
 30
0.0
 10
78.789086
 20
144.473740
 30
0.0
 10
79.377882
 20
144.091020
 30
0.0
  0
SPLINE
  5
108
100
AcDbEntity
  8
Calque_1
 62
7
100
AcDbSpline
 70
8
 71
3
 72
8
 73
4
 74
0
 40
0
 40
0
 40
0
 40
0
 40
1
 40
1
 40
1
 40
1
 10
79.377882
 20
144.091020
 30
0.0
 10
79.966678
 20
143.737740
 30
0.0
 10
80.378835
 20
144.032120
 30
0.0
 10
80.526034
 20
144.532620
 30
0.0
  0
SPLINE
  5
109
100
AcDbEntity
  8
Calque_1
 62
7
100
AcDbSpline
 70
8
 71
3
 72
8
 73
4
 74
0
 40
0
 40
0
 40
0
 40
0
 40
1
 40
1
 40
1
 40
1
 10
80.526034
 20
144.532620
 30
0.0
 10
80.732113
 20
145.180290
 30
0.0
 10
81.144270
 20
146.181250
 30
0.0
 10
81.644747
 20
147.182200
 30
0.0
  0
SPLINE
  5
10a
100
AcDbEntity
  8
Calque_1
 62
7
100
AcDbSpline
 70
8
 71
3
 72
8
 73
4
 74
0
 40
0
 40
0
 40
0
 40
0
 40
1
 40
1
 40
1
 40
1
 10
81.644747
 20
147.182200
 30
0.0
 10
81.939145
 20
147.770990
 30
0.0
 10
82.056904
 20
148.359790
 30
0.0
 10
82.056904
 20
148.889710
 30
0.0
  0
SPLINE
  5
10b
100
AcDbEntity
  8
Calque_1
 62
7
100
AcDbSpline
 70
8
 71
3
 72
8
 73
4
 74
0
 40
0
 40
0
 40
0
 40
0
 40
1
 40
1
 40
1
 40
1
 10
82.056904
 20
148.889710
 30
0.0
 10
82.056904
 20
150.037860
 30
0.0
 10
81.291469
 20
151.186010
 30
0.0
 10
80.290516
 20
152.069210
 30
0.0
  0
SPLINE
  5
10c
100
AcDbEntity
  8
Calque_1
 62
7
100
AcDbSpline
 70
8
 71
3
 72
8
 73
4
 74
0
 40
0
 40
0
 40
0
 40
0
 40
1
 40
1
 40
1
 40
1
 10
80.290516
 20
152.069210
 30
0.0
 10
79.790039
 20
152.481360
 30
0.0
 10
79.112924
 20
152.687440
 30
0.0
 10
78.376929
 20
152.687440
 30
0.0
  0
SPLINE
  5
10d
100
AcDbEntity
  8
Calque_1
 62
7
100
AcDbSpline
 70
8
 71
3
 72
8
 73
4
 74
0
 40
0
 40
0
 40
0
 40
0
 40
1
 40
1
 40
1
 40
1
 10
78.376929
 20
152.687440
 30
0.0
 10
77.640934
 20
152.687440
 30
0.0
 10
76.816619
 20
152.481360
 30
0.0
 10
76.051184
 20
152.186960
 30
0.0
  0
SPLINE
  5
10e
100
AcDbEntity
  8
Calque_1
 62
7
100
AcDbSpline
 70
8
 71
3
 72
8
 73
4
 74
0
 40
0
 40
0
 40
0
 40
0
 40
1
 40
1
 40
1
 40
1
 10
76.051184
 20
152.186960
 30
0.0
 10
72.724487
 20
150.685530
 30
0.0
 10
67.454763
 20
145.356930
 30
0.0
 10
67.572522
 20
139.410090
 30
0.0
  0
SPLINE
  5
10f
100
AcDbEntity
  8
Calque_1
 62
7
100
AcDbSpline
 70
8
 71
3
 72
8
 73
4
 74
0
 40
0
 40
0
 40
0
 40
0
 40
1
 40
1
 40
1
 40
1
 10
67.572522
 20
139.410090
 30
0.0
 10
67.631402
 20
136.996030
 30
0.0
 10
68.838433
 20
135.141320
 30
0.0
 10
70.222104
 20
134.405330
 30
0.0
  0
SPLINE
  5
110
100
AcDbEntity
  8
Calque_1
 62
7
100
AcDbSpline
 70
8
 71
3
 72
8
 73
4
 74
0
 40
0
 40
0
 40
0
 40
0
 40
1
 40
1
 40
1
 40
1
 10
70.222104
 20
134.405330
 30
0.0
 10
70.958099
 20
133.993170
 30
0.0
 10
71.841293
 20
133.787090
 30
0.0
 10
72.812806
 20
133.787090
 30
0.0
  0
SPLINE
  5
111
100
AcDbEntity
  8
Calque_1
 62
7
100
AcDbSpline
 70
8
 71
3
 72
8
 73
4
 74
0
 40
0
 40
0
 40
0
 40
0
 40
1
 40
1
 40
1
 40
1
 10
72.812806
 20
133.787090
 30
0.0
 10
74.078718
 20
133.787090
 30
0.0
 10
75.403509
 20
134.140370
 30
0.0
 10
76.610541
 20
134.994120
 30
0.0
  0
SPLINE
  5
112
100
AcDbEntity
  8
Calque_1
 62
7
100
AcDbSpline
 70
8
 71
3
 72
8
 73
4
 74
0
 40
0
 40
0
 40
0
 40
0
 40
1
 40
1
 40
1
 40
1
 10
76.610541
 20
134.994120
 30
0.0
 10
77.670373
 20
135.789000
 30
0.0
 10
79.260123
 20
137.496500
 30
0.0
 10
79.260123
 20
139.204010
 30
0.0
  0
SPLINE
  5
113
100
AcDbEntity
  8
Calque_1
 62
7
100
AcDbSpline
 70
8
 71
3
 72
8
 73
4
 74
0
 40
0
 40
0
 40
0
 40
0
 40
1
 40
1
 40
1
 40
1
 10
79.260123
 20
139.204010
 30
0.0
 10
79.260123
 20
139.498410
 30
0.0
 10
79.201243
 20
139.851690
 30
0.0
 10
79.054044
 20
140.175530
 30
0.0
  0
SPLINE
  5
114
100
AcDbEntity
  8
Calque_1
 62
7
100
AcDbSpline
 70
8
 71
3
 72
8
 73
4
 74
0
 40
0
 40
0
 40
0
 40
0
 40
1
 40
1
 40
1
 40
1
 10
79.054044
 20
140.175530
 30
0.0
 10
78.759646
 20
140.852640
 30
0.0
 10
78.082531
 20
140.676000
 30
0.0
 10
77.876452
 20
140.263830
 30
0.0
  0
SPLINE
  5
115
100
AcDbEntity
  8
Calque_1
 62
7
100
AcDbSpline
 70
8
 71
3
 72
8
 73
4
 74
0
 40
0
 40
0
 40
0
 40
0
 40
1
 40
1
 40
1
 40
1
 10
85.324719
 20
146.917240
 30
0.0
 10
84.412085
 20
146.917240
 30
0.0
 10
82.527938
 20
144.827010
 30
0.0
 10
82.527938
 20
143.325580
 30
0.0
  0
SPLINE
  5
116
100
AcDbEntity
  8
Calque_1
 62
7
100
AcDbSpline
 70
8
 71
3
 72
8
 73
4
 74
0
 40
0
 40
0
 40
0
 40
0
 40
1
 40
1
 40
1
 40
1
 10
82.527938
 20
143.325580
 30
0.0
 10
82.527938
 20
142.942870
 30
0.0
 10
82.734016
 20
142.560150
 30
0.0
 10
83.087294
 20
142.236310
 30
0.0
  0
SPLINE
  5
117
100
AcDbEntity
  8
Calque_1
 62
7
100
AcDbSpline
 70
8
 71
3
 72
8
 73
4
 74
0
 40
0
 40
0
 40
0
 40
0
 40
1
 40
1
 40
1
 40
1
 10
83.087294
 20
142.236310
 30
0.0
 10
81.468105
 20
140.234410
 30
0.0
 10
79.966675
 20
137.820340
 30
0.0
 10
79.466198
 20
136.878270
 30
0.0
  0
SPLINE
  5
118
100
AcDbEntity
  8
Calque_1
 62
7
100
AcDbSpline
 70
8
 71
3
 72
8
 73
4
 74
0
 40
0
 40
0
 40
0
 40
0
 40
1
 40
1
 40
1
 40
1
 10
79.466198
 20
136.878270
 30
0.0
 10
79.054041
 20
136.112830
 30
0.0
 10
78.847963
 20
135.406280
 30
0.0
 10
78.847963
 20
134.758600
 30
0.0
  0
SPLINE
  5
119
100
AcDbEntity
  8
Calque_1
 62
7
100
AcDbSpline
 70
8
 71
3
 72
8
 73
4
 74
0
 40
0
 40
0
 40
0
 40
0
 40
1
 40
1
 40
1
 40
1
 10
78.847963
 20
134.758600
 30
0.0
 10
78.847963
 20
134.110930
 30
0.0
 10
79.083481
 20
133.492690
 30
0.0
 10
79.583958
 20
133.021650
 30
0.0
  0
SPLINE
  5
11a
100
AcDbEntity
  8
Calque_1
 62
7
100
AcDbSpline
 70
8
 71
3
 72
8
 73
4
 74
0
 40
0
 40
0
 40
0
 40
0
 40
1
 40
1
 40
1
 40
1
 10
79.583958
 20
133.021650
 30
0.0
 10
80.113874
 20
132.462300
 30
0.0
 10
80.496591
 20
132.727260
 30
0.0
 10
80.614351
 20
133.257170
 30
0.0
  0
SPLINE
  5
11b
100
AcDbEntity
  8
Calque_1
 62
7
100
AcDbSpline
 70
8
 71
3
 72
8
 73
4
 74
0
 40
0
 40
0
 40
0
 40
0
 40
1
 40
1
 40
1
 40
1
 10
80.614351
 20
133.257170
 30
0.0
 10
81.026508
 20
135.288520
 30
0.0
 10
82.704576
 20
137.996980
 30
0.0
 10
84.912561
 20
141.824150
 30
0.0
  0
SPLINE
  5
11c
100
AcDbEntity
  8
Calque_1
 62
7
100
AcDbSpline
 70
8
 71
3
 72
8
 73
4
 74
0
 40
0
 40
0
 40
0
 40
0
 40
1
 40
1
 40
1
 40
1
 10
84.912561
 20
141.824150
 30
0.0
 10
85.560237
 20
141.853550
 30
0.0
 10
86.296232
 20
141.971350
 30
0.0
 10
87.061667
 20
142.295190
 30
0.0
  0
SPLINE
  5
11d
100
AcDbEntity
  8
Calque_1
 62
7
100
AcDbSpline
 70
8
 71
3
 72
8
 73
4
 74
0
 40
0
 40
0
 40
0
 40
0
 40
1
 40
1
 40
1
 40
1
 10
87.061667
 20
142.295190
 30
0.0
 10
85.589677
 20
140.499360
 30
0.0
 10
84.029367
 20
138.232500
 30
0.0
 10
84.029367
 20
136.348350
 30
0.0
  0
SPLINE
  5
11e
100
AcDbEntity
  8
Calque_1
 62
7
100
AcDbSpline
 70
8
 71
3
 72
8
 73
4
 74
0
 40
0
 40
0
 40
0
 40
0
 40
1
 40
1
 40
1
 40
1
 10
84.029367
 20
136.348350
 30
0.0
 10
84.029367
 20
134.758600
 30
0.0
 10
85.000881
 20
133.492690
 30
0.0
 10
86.796709
 20
133.492690
 30
0.0
  0
SPLINE
  5
11f
100
AcDbEntity
  8
Calque_1
 62
7
100
AcDbSpline
 70
8
 71
3
 72
8
 73
4
 74
0
 40
0
 40
0
 40
0
 40
0
 40
1
 40
1
 40
1
 40
1
 10
86.796709
 20
133.492690
 30
0.0
 10
88.474777
 20
133.492690
 30
0.0
 10
90.211726
 20
134.758600
 30
0.0
 10
90.918281
 20
136.436670
 30
0.0
  0
SPLINE
  5
120
100
AcDbEntity
  8
Calque_1
 62
7
100
AcDbSpline
 70
8
 71
3
 72
8
 73
4
 74
0
 40
0
 40
0
 40
0
 40
0
 40
1
 40
1
 40
1
 40
1
 10
90.918281
 20
136.436670
 30
0.0
 10
91.242119
 20
137.231550
 30
0.0
 10
91.212679
 20
137.938100
 30
0.0
 10
91.006601
 20
138.350260
 30
0.0
  0
SPLINE
  5
121
100
AcDbEntity
  8
Calque_1
 62
7
100
AcDbSpline
 70
8
 71
3
 72
8
 73
4
 74
0
 40
0
 40
0
 40
0
 40
0
 40
1
 40
1
 40
1
 40
1
 10
91.006601
 20
138.350260
 30
0.0
 10
90.741643
 20
138.880170
 30
0.0
 10
90.329486
 20
138.850740
 30
0.0
 10
90.093967
 20
138.320860
 30
0.0
  0
SPLINE
  5
122
100
AcDbEntity
  8
Calque_1
 62
7
100
AcDbSpline
 70
8
 71
3
 72
8
 73
4
 74
0
 40
0
 40
0
 40
0
 40
0
 40
1
 40
1
 40
1
 40
1
 10
90.093967
 20
138.320860
 30
0.0
 10
89.181334
 20
136.289510
 30
0.0
 10
88.003742
 20
134.640880
 30
0.0
 10
87.002788
 20
134.640880
 30
0.0
  0
SPLINE
  5
123
100
AcDbEntity
  8
Calque_1
 62
7
100
AcDbSpline
 70
8
 71
3
 72
8
 73
4
 74
0
 40
0
 40
0
 40
0
 40
0
 40
1
 40
1
 40
1
 40
1
 10
87.002788
 20
134.640880
 30
0.0
 10
86.590631
 20
134.640880
 30
0.0
 10
86.355113
 20
135.111920
 30
0.0
 10
86.355113
 20
135.877360
 30
0.0
  0
SPLINE
  5
124
100
AcDbEntity
  8
Calque_1
 62
7
100
AcDbSpline
 70
8
 71
3
 72
8
 73
4
 74
0
 40
0
 40
0
 40
0
 40
0
 40
1
 40
1
 40
1
 40
1
 10
86.355113
 20
135.877360
 30
0.0
 10
86.355113
 20
137.614300
 30
0.0
 10
88.033181
 20
139.940050
 30
0.0
 10
89.622931
 20
141.765320
 30
0.0
  0
SPLINE
  5
125
100
AcDbEntity
  8
Calque_1
 62
7
100
AcDbSpline
 70
8
 71
3
 72
8
 73
4
 74
0
 40
0
 40
0
 40
0
 40
0
 40
1
 40
1
 40
1
 40
1
 10
89.622931
 20
141.765320
 30
0.0
 10
89.946768
 20
142.148030
 30
0.0
 10
90.093967
 20
142.560190
 30
0.0
 10
90.093967
 20
142.913470
 30
0.0
  0
SPLINE
  5
126
100
AcDbEntity
  8
Calque_1
 62
7
100
AcDbSpline
 70
8
 71
3
 72
8
 73
4
 74
0
 40
0
 40
0
 40
0
 40
0
 40
1
 40
1
 40
1
 40
1
 10
90.093967
 20
142.913470
 30
0.0
 10
90.093967
 20
143.620020
 30
0.0
 10
89.652370
 20
144.385460
 30
0.0
 10
89.240213
 20
144.797610
 30
0.0
  0
SPLINE
  5
127
100
AcDbEntity
  8
Calque_1
 62
7
100
AcDbSpline
 70
8
 71
3
 72
8
 73
4
 74
0
 40
0
 40
0
 40
0
 40
0
 40
1
 40
1
 40
1
 40
1
 10
89.240213
 20
144.797610
 30
0.0
 10
88.857496
 20
145.180330
 30
0.0
 10
88.563098
 20
145.121450
 30
0.0
 10
88.062621
 20
144.768210
 30
0.0
  0
SPLINE
  5
128
100
AcDbEntity
  8
Calque_1
 62
7
100
AcDbSpline
 70
8
 71
3
 72
8
 73
4
 74
0
 40
0
 40
0
 40
0
 40
0
 40
1
 40
1
 40
1
 40
1
 10
88.062621
 20
144.768210
 30
0.0
 10
87.179427
 20
144.120530
 30
0.0
 10
86.384552
 20
143.708370
 30
0.0
 10
85.677997
 20
143.531730
 30
0.0
  0
SPLINE
  5
129
100
AcDbEntity
  8
Calque_1
 62
7
100
AcDbSpline
 70
8
 71
3
 72
8
 73
4
 74
0
 40
0
 40
0
 40
0
 40
0
 40
1
 40
1
 40
1
 40
1
 10
85.677997
 20
143.531730
 30
0.0
 10
86.001835
 20
144.473810
 30
0.0
 10
86.207914
 20
145.327560
 30
0.0
 10
86.207914
 20
145.886920
 30
0.0
  0
SPLINE
  5
12a
100
AcDbEntity
  8
Calque_1
 62
7
100
AcDbSpline
 70
8
 71
3
 72
8
 73
4
 74
0
 40
0
 40
0
 40
0
 40
0
 40
1
 40
1
 40
1
 40
1
 10
86.207914
 20
145.886920
 30
0.0
 10
86.207914
 20
146.564030
 30
0.0
 10
85.942955
 20
146.917310
 30
0.0
 10
85.324720
 20
146.917310
 30
0.0
  0
LWPOLYLINE
  5
12b
100
AcDbEntity
  8
Calque_1
 62
7
100
AcDbPolyline
 90
1
 70
1
 10
77.876452
 20
140.263830
 30
0.0
  0
SPLINE
  5
12c
100
AcDbEntity
  8
Calque_1
 62
7
100
AcDbSpline
 70
8
 71
3
 72
8
 73
4
 74
0
 40
0
 40
0
 40
0
 40
0
 40
1
 40
1
 40
1
 40
1
 10
97.512794
 20
144.091020
 30
0.0
 10
97.836631
 20
143.826060
 30
0.0
 10
97.218396
 20
142.442390
 30
0.0
 10
96.364641
 20
141.294240
 30
0.0
  0
SPLINE
  5
12d
100
AcDbEntity
  8
Calque_1
 62
7
100
AcDbSpline
 70
8
 71
3
 72
8
 73
4
 74
0
 40
0
 40
0
 40
0
 40
0
 40
1
 40
1
 40
1
 40
1
 10
96.364641
 20
141.294240
 30
0.0
 10
95.775845
 20
140.499360
 30
0.0
 10
94.833772
 20
139.616170
 30
0.0
 10
94.127217
 20
139.616170
 30
0.0
  0
SPLINE
  5
12e
100
AcDbEntity
  8
Calque_1
 62
7
100
AcDbSpline
 70
8
 71
3
 72
8
 73
4
 74
0
 40
0
 40
0
 40
0
 40
0
 40
1
 40
1
 40
1
 40
1
 10
94.127217
 20
139.616170
 30
0.0
 10
93.921138
 20
139.616170
 30
0.0
 10
93.715059
 20
139.675070
 30
0.0
 10
93.479541
 20
139.822250
 30
0.0
  0
SPLINE
  5
12f
100
AcDbEntity
  8
Calque_1
 62
7
100
AcDbSpline
 70
8
 71
3
 72
8
 73
4
 74
0
 40
0
 40
0
 40
0
 40
0
 40
1
 40
1
 40
1
 40
1
 10
93.479541
 20
139.822250
 30
0.0
 10
94.892651
 20
142.648470
 30
0.0
 10
97.071197
 20
144.444300
 30
0.0
 10
97.512794
 20
144.091020
 30
0.0
  0
LWPOLYLINE
  5
130
100
AcDbEntity
  8
Calque_1
 62
7
100
AcDbPolyline
 90
1
 70
1
 10
85.324720
 20
146.917310
 30
0.0
  0
SPLINE
  5
131
100
AcDbEntity
  8
Calque_1
 62
7
100
AcDbSpline
 70
8
 71
3
 72
8
 73
4
 74
0
 40
0
 40
0
 40
0
 40
0
 40
1
 40
1
 40
1
 40
1
 10
99.720779
 20
142.913430
 30
0.0
 10
99.720779
 20
143.296150
 30
0.0
 10
99.603019
 20
143.737740
 30
0.0
 10
99.426381
 20
144.002700
 30
0.0
  0
SPLINE
  5
132
100
AcDbEntity
  8
Calque_1
 62
7
100
AcDbSpline
 70
8
 71
3
 72
8
 73
4
 74
0
 40
0
 40
0
 40
0
 40
0
 40
1
 40
1
 40
1
 40
1
 10
99.426381
 20
144.002700
 30
0.0
 10
99.014223
 20
144.591500
 30
0.0
 10
98.425427
 20
145.062530
 30
0.0
 10
97.601113
 20
145.533570
 30
0.0
  0
SPLINE
  5
133
100
AcDbEntity
  8
Calque_1
 62
7
100
AcDbSpline
 70
8
 71
3
 72
8
 73
4
 74
0
 40
0
 40
0
 40
0
 40
0
 40
1
 40
1
 40
1
 40
1
 10
97.601113
 20
145.533570
 30
0.0
 10
97.306715
 20
145.710210
 30
0.0
 10
96.982877
 20
145.769090
 30
0.0
 10
96.570720
 20
145.769090
 30
0.0
  0
SPLINE
  5
134
100
AcDbEntity
  8
Calque_1
 62
7
100
AcDbSpline
 70
8
 71
3
 72
8
 73
4
 74
0
 40
0
 40
0
 40
0
 40
0
 40
1
 40
1
 40
1
 40
1
 10
96.570720
 20
145.769090
 30
0.0
 10
94.863212
 20
145.769090
 30
0.0
 10
92.478588
 20
144.208780
 30
0.0
 10
90.947718
 20
141.088160
 30
0.0
  0
SPLINE
  5
135
100
AcDbEntity
  8
Calque_1
 62
7
100
AcDbSpline
 70
8
 71
3
 72
8
 73
4
 74
0
 40
0
 40
0
 40
0
 40
0
 40
1
 40
1
 40
1
 40
1
 10
90.947718
 20
141.088160
 30
0.0
 10
90.329482
 20
139.910570
 30
0.0
 10
90.035084
 20
138.762420
 30
0.0
 10
90.035084
 20
137.702580
 30
0.0
  0
SPLINE
  5
136
100
AcDbEntity
  8
Calque_1
 62
7
100
AcDbSpline
 70
8
 71
3
 72
8
 73
4
 74
0
 40
0
 40
0
 40
0
 40
0
 40
1
 40
1
 40
1
 40
1
 10
90.035084
 20
137.702580
 30
0.0
 10
90.035084
 20
135.347400
 30
0.0
 10
91.536514
 20
133.551570
 30
0.0
 10
94.274416
 20
133.581010
 30
0.0
  0
SPLINE
  5
137
100
AcDbEntity
  8
Calque_1
 62
7
100
AcDbSpline
 70
8
 71
3
 72
8
 73
4
 74
0
 40
0
 40
0
 40
0
 40
0
 40
1
 40
1
 40
1
 40
1
 10
94.274416
 20
133.581010
 30
0.0
 10
96.570720
 20
133.610410
 30
0.0
 10
98.925904
 20
134.994120
 30
0.0
 10
100.162380
 20
136.789950
 30
0.0
  0
SPLINE
  5
138
100
AcDbEntity
  8
Calque_1
 62
7
100
AcDbSpline
 70
8
 71
3
 72
8
 73
4
 74
0
 40
0
 40
0
 40
0
 40
0
 40
1
 40
1
 40
1
 40
1
 10
100.162380
 20
136.789950
 30
0.0
 10
100.692290
 20
137.584820
 30
0.0
 10
100.662850
 20
138.438580
 30
0.0
 10
100.574530
 20
138.703540
 30
0.0
  0
SPLINE
  5
139
100
AcDbEntity
  8
Calque_1
 62
7
100
AcDbSpline
 70
8
 71
3
 72
8
 73
4
 74
0
 40
0
 40
0
 40
0
 40
0
 40
1
 40
1
 40
1
 40
1
 10
100.574530
 20
138.703540
 30
0.0
 10
100.339010
 20
139.292330
 30
0.0
 10
99.956297
 20
139.233450
 30
0.0
 10
99.632459
 20
138.762440
 30
0.0
  0
SPLINE
  5
13a
100
AcDbEntity
  8
Calque_1
 62
7
100
AcDbSpline
 70
8
 71
3
 72
8
 73
4
 74
0
 40
0
 40
0
 40
0
 40
0
 40
1
 40
1
 40
1
 40
1
 10
99.632459
 20
138.762440
 30
0.0
 10
98.425427
 20
136.937170
 30
0.0
 10
96.452961
 20
134.758620
 30
0.0
 10
94.215536
 20
134.758620
 30
0.0
  0
SPLINE
  5
13b
100
AcDbEntity
  8
Calque_1
 62
7
100
AcDbSpline
 70
8
 71
3
 72
8
 73
4
 74
0
 40
0
 40
0
 40
0
 40
0
 40
1
 40
1
 40
1
 40
1
 10
94.215536
 20
134.758620
 30
0.0
 10
93.332342
 20
134.758620
 30
0.0
 10
92.802426
 20
135.671260
 30
0.0
 10
92.802426
 20
136.966610
 30
0.0
  0
SPLINE
  5
13c
100
AcDbEntity
  8
Calque_1
 62
7
100
AcDbSpline
 70
8
 71
3
 72
8
 73
4
 74
0
 40
0
 40
0
 40
0
 40
0
 40
1
 40
1
 40
1
 40
1
 10
92.802426
 20
136.966610
 30
0.0
 10
92.802426
 20
137.496520
 30
0.0
 10
92.890746
 20
138.114760
 30
0.0
 10
93.067384
 20
138.703560
 30
0.0
  0
SPLINE
  5
13d
100
AcDbEntity
  8
Calque_1
 62
7
100
AcDbSpline
 70
8
 71
3
 72
8
 73
4
 74
0
 40
0
 40
0
 40
0
 40
0
 40
1
 40
1
 40
1
 40
1
 10
93.067384
 20
138.703560
 30
0.0
 10
93.744499
 20
138.261960
 30
0.0
 10
94.451054
 20
138.055880
 30
0.0
 10
95.157610
 20
138.055880
 30
0.0
  0
SPLINE
  5
13e
100
AcDbEntity
  8
Calque_1
 62
7
100
AcDbSpline
 70
8
 71
3
 72
8
 73
4
 74
0
 40
0
 40
0
 40
0
 40
0
 40
1
 40
1
 40
1
 40
1
 10
95.157610
 20
138.055880
 30
0.0
 10
97.748312
 20
138.055880
 30
0.0
 10
99.720779
 20
141.147060
 30
0.0
 10
99.720779
 20
142.913450
 30
0.0
  0
LWPOLYLINE
  5
13f
100
AcDbEntity
  8
Calque_1
 62
7
100
AcDbPolyline
 90
1
 70
1
 10
97.512794
 20
144.091020
 30
0.0
  0
SPLINE
  5
140
100
AcDbEntity
  8
Calque_1
 62
7
100
AcDbSpline
 70
8
 71
3
 72
8
 73
4
 74
0
 40
0
 40
0
 40
0
 40
0
 40
1
 40
1
 40
1
 40
1
 10
100.957240
 20
141.029280
 30
0.0
 10
99.897410
 20
139.557290
 30
0.0
 10
99.367494
 20
137.908660
 30
0.0
 10
99.367494
 20
136.642750
 30
0.0
  0
SPLINE
  5
141
100
AcDbEntity
  8
Calque_1
 62
7
100
AcDbSpline
 70
8
 71
3
 72
8
 73
4
 74
0
 40
0
 40
0
 40
0
 40
0
 40
1
 40
1
 40
1
 40
1
 10
99.367494
 20
136.642750
 30
0.0
 10
99.367494
 20
134.905800
 30
0.0
 10
100.309570
 20
133.639890
 30
0.0
 10
102.046520
 20
133.639890
 30
0.0
  0
SPLINE
  5
142
100
AcDbEntity
  8
Calque_1
 62
7
100
AcDbSpline
 70
8
 71
3
 72
8
 73
4
 74
0
 40
0
 40
0
 40
0
 40
0
 40
1
 40
1
 40
1
 40
1
 10
102.046520
 20
133.639890
 30
0.0
 10
103.224110
 20
133.639890
 30
0.0
 10
104.548900
 20
134.552520
 30
0.0
 10
105.402650
 20
135.376840
 30
0.0
  0
SPLINE
  5
143
100
AcDbEntity
  8
Calque_1
 62
7
100
AcDbSpline
 70
8
 71
3
 72
8
 73
4
 74
0
 40
0
 40
0
 40
0
 40
0
 40
1
 40
1
 40
1
 40
1
 10
105.402650
 20
135.376840
 30
0.0
 10
105.638170
 20
134.287570
 30
0.0
 10
106.491930
 20
133.522130
 30
0.0
 10
107.963920
 20
133.522130
 30
0.0
  0
SPLINE
  5
144
100
AcDbEntity
  8
Calque_1
 62
7
100
AcDbSpline
 70
8
 71
3
 72
8
 73
4
 74
0
 40
0
 40
0
 40
0
 40
0
 40
1
 40
1
 40
1
 40
1
 10
107.963920
 20
133.522130
 30
0.0
 10
109.759740
 20
133.522130
 30
0.0
 10
111.643890
 20
135.082440
 30
0.0
 10
112.409330
 20
136.701630
 30
0.0
  0
SPLINE
  5
145
100
AcDbEntity
  8
Calque_1
 62
7
100
AcDbSpline
 70
8
 71
3
 72
8
 73
4
 74
0
 40
0
 40
0
 40
0
 40
0
 40
1
 40
1
 40
1
 40
1
 10
112.409330
 20
136.701630
 30
0.0
 10
112.821480
 20
137.555380
 30
0.0
 10
112.644840
 20
138.350260
 30
0.0
 10
112.527080
 20
138.615220
 30
0.0
  0
SPLINE
  5
146
100
AcDbEntity
  8
Calque_1
 62
7
100
AcDbSpline
 70
8
 71
3
 72
8
 73
4
 74
0
 40
0
 40
0
 40
0
 40
0
 40
1
 40
1
 40
1
 40
1
 10
112.527080
 20
138.615220
 30
0.0
 10
112.232690
 20
139.233450
 30
0.0
 10
111.967730
 20
139.204010
 30
0.0
 10
111.643890
 20
138.615220
 30
0.0
  0
SPLINE
  5
147
100
AcDbEntity
  8
Calque_1
 62
7
100
AcDbSpline
 70
8
 71
3
 72
8
 73
4
 74
0
 40
0
 40
0
 40
0
 40
0
 40
1
 40
1
 40
1
 40
1
 10
111.643890
 20
138.615220
 30
0.0
 10
110.672380
 20
136.701630
 30
0.0
 10
109.200390
 20
134.699720
 30
0.0
 10
108.140550
 20
134.699720
 30
0.0
  0
SPLINE
  5
148
100
AcDbEntity
  8
Calque_1
 62
7
100
AcDbSpline
 70
8
 71
3
 72
8
 73
4
 74
0
 40
0
 40
0
 40
0
 40
0
 40
1
 40
1
 40
1
 40
1
 10
108.140550
 20
134.699720
 30
0.0
 10
107.846160
 20
134.699720
 30
0.0
 10
107.728400
 20
134.964680
 30
0.0
 10
107.728400
 20
135.406280
 30
0.0
  0
SPLINE
  5
149
100
AcDbEntity
  8
Calque_1
 62
7
100
AcDbSpline
 70
8
 71
3
 72
8
 73
4
 74
0
 40
0
 40
0
 40
0
 40
0
 40
1
 40
1
 40
1
 40
1
 10
107.728400
 20
135.406280
 30
0.0
 10
107.728400
 20
137.378750
 30
0.0
 10
110.201340
 20
140.587680
 30
0.0
 10
110.966770
 20
142.206870
 30
0.0
  0
SPLINE
  5
14a
100
AcDbEntity
  8
Calque_1
 62
7
100
AcDbSpline
 70
8
 71
3
 72
8
 73
4
 74
0
 40
0
 40
0
 40
0
 40
0
 40
1
 40
1
 40
1
 40
1
 10
110.966770
 20
142.206870
 30
0.0
 10
111.732210
 20
143.737740
 30
0.0
 10
111.467250
 20
145.033090
 30
0.0
 10
110.966770
 20
145.621890
 30
0.0
  0
SPLINE
  5
14b
100
AcDbEntity
  8
Calque_1
 62
7
100
AcDbSpline
 70
8
 71
3
 72
8
 73
4
 74
0
 40
0
 40
0
 40
0
 40
0
 40
1
 40
1
 40
1
 40
1
 10
110.966770
 20
145.621890
 30
0.0
 10
110.613500
 20
146.034050
 30
0.0
 10
110.113020
 20
146.004610
 30
0.0
 10
109.759740
 20
145.415810
 30
0.0
  0
LWPOLYLINE
  5
14c
100
AcDbEntity
  8
Calque_1
 62
7
100
AcDbPolyline
 90
1
 70
1
 10
99.720779
 20
142.913450
 30
0.0
  0
SPLINE
  5
14d
100
AcDbEntity
  8
Calque_1
 62
7
100
AcDbSpline
 70
8
 71
3
 72
8
 73
4
 74
0
 40
0
 40
0
 40
0
 40
0
 40
1
 40
1
 40
1
 40
1
 10
109.200390
 20
144.503180
 30
0.0
 10
108.935430
 20
145.268610
 30
0.0
 10
108.287750
 20
145.798530
 30
0.0
 10
107.227920
 20
145.798530
 30
0.0
  0
SPLINE
  5
14e
100
AcDbEntity
  8
Calque_1
 62
7
100
AcDbSpline
 70
8
 71
3
 72
8
 73
4
 74
0
 40
0
 40
0
 40
0
 40
0
 40
1
 40
1
 40
1
 40
1
 10
107.227920
 20
145.798530
 30
0.0
 10
105.726490
 20
145.798530
 30
0.0
 10
103.312430
 20
144.414860
 30
0.0
 10
100.957240
 20
141.029280
 30
0.0
  0
LWPOLYLINE
  5
14f
100
AcDbEntity
  8
Calque_1
 62
7
100
AcDbPolyline
 90
2
 70
0
 10
109.759740
 20
145.415810
 30
0.0
 10
109.200390
 20
144.503180
 30
0.0
  0
SPLINE
  5
150
100
AcDbEntity
  8
Calque_1
 62
7
100
AcDbSpline
 70
8
 71
3
 72
8
 73
4
 74
0
 40
0
 40
0
 40
0
 40
0
 40
1
 40
1
 40
1
 40
1
 10
102.429230
 20
134.935240
 30
0.0
 10
102.134830
 20
134.935240
 30
0.0
 10
102.017080
 20
135.288520
 30
0.0
 10
102.017080
 20
135.818440
 30
0.0
  0
SPLINE
  5
151
100
AcDbEntity
  8
Calque_1
 62
7
100
AcDbSpline
 70
8
 71
3
 72
8
 73
4
 74
0
 40
0
 40
0
 40
0
 40
0
 40
1
 40
1
 40
1
 40
1
 10
102.017080
 20
135.818440
 30
0.0
 10
102.017080
 20
136.760510
 30
0.0
 10
102.517550
 20
138.320820
 30
0.0
 10
103.400750
 20
139.704490
 30
0.0
  0
SPLINE
  5
152
100
AcDbEntity
  8
Calque_1
 62
7
100
AcDbSpline
 70
8
 71
3
 72
8
 73
4
 74
0
 40
0
 40
0
 40
0
 40
0
 40
1
 40
1
 40
1
 40
1
 10
103.400750
 20
139.704490
 30
0.0
 10
104.902180
 20
142.118550
 30
0.0
 10
106.933520
 20
143.973260
 30
0.0
 10
107.522320
 20
143.973260
 30
0.0
  0
SPLINE
  5
153
100
AcDbEntity
  8
Calque_1
 62
7
100
AcDbSpline
 70
8
 71
3
 72
8
 73
4
 74
0
 40
0
 40
0
 40
0
 40
0
 40
1
 40
1
 40
1
 40
1
 10
107.522320
 20
143.973260
 30
0.0
 10
107.816720
 20
143.973260
 30
0.0
 10
107.875600
 20
143.767180
 30
0.0
 10
107.875600
 20
143.413900
 30
0.0
  0
SPLINE
  5
154
100
AcDbEntity
  8
Calque_1
 62
7
100
AcDbSpline
 70
8
 71
3
 72
8
 73
4
 74
0
 40
0
 40
0
 40
0
 40
0
 40
1
 40
1
 40
1
 40
1
 10
107.875600
 20
143.413900
 30
0.0
 10
107.875600
 20
142.648470
 30
0.0
 10
107.345680
 20
141.205920
 30
0.0
 10
106.197530
 20
139.204010
 30
0.0
  0
SPLINE
  5
155
100
AcDbEntity
  8
Calque_1
 62
7
100
AcDbSpline
 70
8
 71
3
 72
8
 73
4
 74
0
 40
0
 40
0
 40
0
 40
0
 40
1
 40
1
 40
1
 40
1
 10
106.197530
 20
139.204010
 30
0.0
 10
104.754980
 20
136.731070
 30
0.0
 10
103.400750
 20
134.935240
 30
0.0
 10
102.429230
 20
134.935240
 30
0.0
  0
LWPOLYLINE
  5
156
100
AcDbEntity
  8
Calque_1
 62
7
100
AcDbPolyline
 90
1
 70
1
 10
100.957240
 20
141.029280
 30
0.0
  0
SPLINE
  5
157
100
AcDbEntity
  8
Calque_1
 62
7
100
AcDbSpline
 70
8
 71
3
 72
8
 73
4
 74
0
 40
0
 40
0
 40
0
 40
0
 40
1
 40
1
 40
1
 40
1
 10
111.320040
 20
136.907710
 30
0.0
 10
111.320040
 20
134.876360
 30
0.0
 10
112.674270
 20
133.610450
 30
0.0
 10
114.234580
 20
133.610450
 30
0.0
  0
SPLINE
  5
158
100
AcDbEntity
  8
Calque_1
 62
7
100
AcDbSpline
 70
8
 71
3
 72
8
 73
4
 74
0
 40
0
 40
0
 40
0
 40
0
 40
1
 40
1
 40
1
 40
1
 10
114.234580
 20
133.610450
 30
0.0
 10
116.707520
 20
133.610450
 30
0.0
 10
118.679990
 20
136.142270
 30
0.0
 10
119.092150
 20
137.025470
 30
0.0
  0
SPLINE
  5
159
100
AcDbEntity
  8
Calque_1
 62
7
100
AcDbSpline
 70
8
 71
3
 72
8
 73
4
 74
0
 40
0
 40
0
 40
0
 40
0
 40
1
 40
1
 40
1
 40
1
 10
119.092150
 20
137.025470
 30
0.0
 10
119.415990
 20
137.702580
 30
0.0
 10
119.533750
 20
138.144180
 30
0.0
 10
119.386550
 20
138.762420
 30
0.0
  0
SPLINE
  5
15a
100
AcDbEntity
  8
Calque_1
 62
7
100
AcDbSpline
 70
8
 71
3
 72
8
 73
4
 74
0
 40
0
 40
0
 40
0
 40
0
 40
1
 40
1
 40
1
 40
1
 10
119.386550
 20
138.762420
 30
0.0
 10
119.180470
 20
139.557290
 30
0.0
 10
118.503350
 20
139.498410
 30
0.0
 10
118.179510
 20
138.791820
 30
0.0
  0
SPLINE
  5
15b
100
AcDbEntity
  8
Calque_1
 62
7
100
AcDbSpline
 70
8
 71
3
 72
8
 73
4
 74
0
 40
0
 40
0
 40
0
 40
0
 40
1
 40
1
 40
1
 40
1
 10
118.179510
 20
138.791820
 30
0.0
 10
117.149120
 20
136.583830
 30
0.0
 10
115.618250
 20
134.729120
 30
0.0
 10
114.470100
 20
134.729120
 30
0.0
  0
SPLINE
  5
15c
100
AcDbEntity
  8
Calque_1
 62
7
100
AcDbSpline
 70
8
 71
3
 72
8
 73
4
 74
0
 40
0
 40
0
 40
0
 40
0
 40
1
 40
1
 40
1
 40
1
 10
114.470100
 20
134.729120
 30
0.0
 10
113.969620
 20
134.729120
 30
0.0
 10
113.675220
 20
135.347360
 30
0.0
 10
113.675220
 20
136.230550
 30
0.0
  0
SPLINE
  5
15d
100
AcDbEntity
  8
Calque_1
 62
7
100
AcDbSpline
 70
8
 71
3
 72
8
 73
4
 74
0
 40
0
 40
0
 40
0
 40
0
 40
1
 40
1
 40
1
 40
1
 10
113.675220
 20
136.230550
 30
0.0
 10
113.675220
 20
136.878230
 30
0.0
 10
113.851860
 20
137.643660
 30
0.0
 10
114.205140
 20
138.438540
 30
0.0
  0
SPLINE
  5
15e
100
AcDbEntity
  8
Calque_1
 62
7
100
AcDbSpline
 70
8
 71
3
 72
8
 73
4
 74
0
 40
0
 40
0
 40
0
 40
0
 40
1
 40
1
 40
1
 40
1
 10
114.205140
 20
138.438540
 30
0.0
 10
115.235530
 20
140.675960
 30
0.0
 10
116.913600
 20
143.590500
 30
0.0
 10
118.032320
 20
145.504090
 30
0.0
  0
SPLINE
  5
15f
100
AcDbEntity
  8
Calque_1
 62
7
100
AcDbSpline
 70
8
 71
3
 72
8
 73
4
 74
0
 40
0
 40
0
 40
0
 40
0
 40
1
 40
1
 40
1
 40
1
 10
118.032320
 20
145.504090
 30
0.0
 10
118.679990
 20
145.592390
 30
0.0
 10
119.445430
 20
145.651290
 30
0.0
 10
119.975340
 20
145.592390
 30
0.0
  0
SPLINE
  5
160
100
AcDbEntity
  8
Calque_1
 62
7
100
AcDbSpline
 70
8
 71
3
 72
8
 73
4
 74
0
 40
0
 40
0
 40
0
 40
0
 40
1
 40
1
 40
1
 40
1
 10
119.975340
 20
145.592390
 30
0.0
 10
120.681900
 20
145.504090
 30
0.0
 10
120.887980
 20
145.857350
 30
0.0
 10
120.593580
 20
146.387260
 30
0.0
  0
SPLINE
  5
161
100
AcDbEntity
  8
Calque_1
 62
7
100
AcDbSpline
 70
8
 71
3
 72
8
 73
4
 74
0
 40
0
 40
0
 40
0
 40
0
 40
1
 40
1
 40
1
 40
1
 10
120.593580
 20
146.387260
 30
0.0
 10
120.387500
 20
146.740540
 30
0.0
 10
119.887020
 20
147.211580
 30
0.0
 10
118.974390
 20
147.329340
 30
0.0
  0
SPLINE
  5
162
100
AcDbEntity
  8
Calque_1
 62
7
100
AcDbSpline
 70
8
 71
3
 72
8
 73
4
 74
0
 40
0
 40
0
 40
0
 40
0
 40
1
 40
1
 40
1
 40
1
 10
118.974390
 20
147.329340
 30
0.0
 10
119.327670
 20
148.153650
 30
0.0
 10
119.445430
 20
148.830770
 30
0.0
 10
119.445430
 20
149.360680
 30
0.0
  0
SPLINE
  5
163
100
AcDbEntity
  8
Calque_1
 62
7
100
AcDbSpline
 70
8
 71
3
 72
8
 73
4
 74
0
 40
0
 40
0
 40
0
 40
0
 40
1
 40
1
 40
1
 40
1
 10
119.445430
 20
149.360680
 30
0.0
 10
119.445430
 20
149.713960
 30
0.0
 10
119.327670
 20
150.214440
 30
0.0
 10
119.121590
 20
150.567720
 30
0.0
  0
SPLINE
  5
164
100
AcDbEntity
  8
Calque_1
 62
7
100
AcDbSpline
 70
8
 71
3
 72
8
 73
4
 74
0
 40
0
 40
0
 40
0
 40
0
 40
1
 40
1
 40
1
 40
1
 10
119.121590
 20
150.567720
 30
0.0
 10
118.797750
 20
151.127070
 30
0.0
 10
118.444470
 20
151.156510
 30
0.0
 10
118.002880
 20
150.508820
 30
0.0
  0
SPLINE
  5
165
100
AcDbEntity
  8
Calque_1
 62
7
100
AcDbSpline
 70
8
 71
3
 72
8
 73
4
 74
0
 40
0
 40
0
 40
0
 40
0
 40
1
 40
1
 40
1
 40
1
 10
118.002880
 20
150.508820
 30
0.0
 10
117.325760
 20
149.537300
 30
0.0
 10
116.707520
 20
148.565790
 30
0.0
 10
115.794890
 20
146.976040
 30
0.0
  0
SPLINE
  5
166
100
AcDbEntity
  8
Calque_1
 62
7
100
AcDbSpline
 70
8
 71
3
 72
8
 73
4
 74
0
 40
0
 40
0
 40
0
 40
0
 40
1
 40
1
 40
1
 40
1
 10
115.794890
 20
146.976040
 30
0.0
 10
115.147210
 20
146.917140
 30
0.0
 10
114.352340
 20
146.887740
 30
0.0
 10
113.675220
 20
146.917140
 30
0.0
  0
SPLINE
  5
167
100
AcDbEntity
  8
Calque_1
 62
7
100
AcDbSpline
 70
8
 71
3
 72
8
 73
4
 74
0
 40
0
 40
0
 40
0
 40
0
 40
1
 40
1
 40
1
 40
1
 10
113.675220
 20
146.917140
 30
0.0
 10
112.998110
 20
146.946540
 30
0.0
 10
112.703710
 20
146.652180
 30
0.0
 10
113.115870
 20
146.033950
 30
0.0
  0
SPLINE
  5
168
100
AcDbEntity
  8
Calque_1
 62
7
100
AcDbSpline
 70
8
 71
3
 72
8
 73
4
 74
0
 40
0
 40
0
 40
0
 40
0
 40
1
 40
1
 40
1
 40
1
 10
113.115870
 20
146.033950
 30
0.0
 10
113.351390
 20
145.680670
 30
0.0
 10
113.881300
 20
145.356830
 30
0.0
 10
114.793940
 20
145.239070
 30
0.0
  0
SPLINE
  5
169
100
AcDbEntity
  8
Calque_1
 62
7
100
AcDbSpline
 70
8
 71
3
 72
8
 73
4
 74
0
 40
0
 40
0
 40
0
 40
0
 40
1
 40
1
 40
1
 40
1
 10
114.793940
 20
145.239070
 30
0.0
 10
113.616350
 20
143.119410
 30
0.0
 10
112.497630
 20
140.793660
 30
0.0
 10
111.908840
 20
139.351110
 30
0.0
  0
SPLINE
  5
16a
100
AcDbEntity
  8
Calque_1
 62
7
100
AcDbSpline
 70
8
 71
3
 72
8
 73
4
 74
0
 40
0
 40
0
 40
0
 40
0
 40
1
 40
1
 40
1
 40
1
 10
111.908840
 20
139.351110
 30
0.0
 10
111.496680
 20
138.379600
 30
0.0
 10
111.320040
 20
137.555280
 30
0.0
 10
111.320040
 20
136.907610
 30
0.0
  0
LWPOLYLINE
  5
16b
100
AcDbEntity
  8
Calque_1
 62
7
100
AcDbPolyline
 90
1
 70
1
 10
102.429230
 20
134.935240
 30
0.0
  0
SPLINE
  5
16c
100
AcDbEntity
  8
Calque_1
 62
7
100
AcDbSpline
 70
8
 71
3
 72
8
 73
4
 74
0
 40
0
 40
0
 40
0
 40
0
 40
1
 40
1
 40
1
 40
1
 10
122.389430
 20
147.035000
 30
0.0
 10
122.389430
 20
146.122370
 30
0.0
 10
123.184300
 20
145.239170
 30
0.0
 10
124.126370
 20
145.239170
 30
0.0
  0
SPLINE
  5
16d
100
AcDbEntity
  8
Calque_1
 62
7
100
AcDbSpline
 70
8
 71
3
 72
8
 73
4
 74
0
 40
0
 40
0
 40
0
 40
0
 40
1
 40
1
 40
1
 40
1
 10
124.126370
 20
145.239170
 30
0.0
 10
124.862370
 20
145.239170
 30
0.0
 10
125.303970
 20
145.916290
 30
0.0
 10
125.303970
 20
146.711160
 30
0.0
  0
SPLINE
  5
16e
100
AcDbEntity
  8
Calque_1
 62
7
100
AcDbSpline
 70
8
 71
3
 72
8
 73
4
 74
0
 40
0
 40
0
 40
0
 40
0
 40
1
 40
1
 40
1
 40
1
 10
125.303970
 20
146.711160
 30
0.0
 10
125.303970
 20
147.564920
 30
0.0
 10
124.509090
 20
148.624750
 30
0.0
 10
123.684780
 20
148.624750
 30
0.0
  0
SPLINE
  5
16f
100
AcDbEntity
  8
Calque_1
 62
7
100
AcDbSpline
 70
8
 71
3
 72
8
 73
4
 74
0
 40
0
 40
0
 40
0
 40
0
 40
1
 40
1
 40
1
 40
1
 10
123.684780
 20
148.624750
 30
0.0
 10
123.007660
 20
148.624750
 30
0.0
 10
122.389430
 20
147.859310
 30
0.0
 10
122.389430
 20
147.035000
 30
0.0
  0
LWPOLYLINE
  5
170
100
AcDbEntity
  8
Calque_1
 62
7
100
AcDbPolyline
 90
1
 70
1
 10
111.320040
 20
136.907610
 30
0.0
  0
SPLINE
  5
171
100
AcDbEntity
  8
Calque_1
 62
7
100
AcDbSpline
 70
8
 71
3
 72
8
 73
4
 74
0
 40
0
 40
0
 40
0
 40
0
 40
1
 40
1
 40
1
 40
1
 10
124.567970
 20
136.701630
 30
0.0
 10
124.950690
 20
137.467060
 30
0.0
 10
124.980130
 20
138.203060
 30
0.0
 10
124.715170
 20
138.703540
 30
0.0
  0
SPLINE
  5
172
100
AcDbEntity
  8
Calque_1
 62
7
100
AcDbSpline
 70
8
 71
3
 72
8
 73
4
 74
0
 40
0
 40
0
 40
0
 40
0
 40
1
 40
1
 40
1
 40
1
 10
124.715170
 20
138.703540
 30
0.0
 10
124.450210
 20
139.233450
 30
0.0
 10
124.067490
 20
139.292330
 30
0.0
 10
123.831980
 20
138.762440
 30
0.0
  0
SPLINE
  5
173
100
AcDbEntity
  8
Calque_1
 62
7
100
AcDbSpline
 70
8
 71
3
 72
8
 73
4
 74
0
 40
0
 40
0
 40
0
 40
0
 40
1
 40
1
 40
1
 40
1
 10
123.831980
 20
138.762440
 30
0.0
 10
122.919340
 20
136.760530
 30
0.0
 10
121.388470
 20
134.788060
 30
0.0
 10
120.210880
 20
134.788060
 30
0.0
  0
SPLINE
  5
174
100
AcDbEntity
  8
Calque_1
 62
7
100
AcDbSpline
 70
8
 71
3
 72
8
 73
4
 74
0
 40
0
 40
0
 40
0
 40
0
 40
1
 40
1
 40
1
 40
1
 10
120.210880
 20
134.788060
 30
0.0
 10
119.887040
 20
134.788060
 30
0.0
 10
119.769280
 20
135.053020
 30
0.0
 10
119.769280
 20
135.524060
 30
0.0
  0
SPLINE
  5
175
100
AcDbEntity
  8
Calque_1
 62
7
100
AcDbSpline
 70
8
 71
3
 72
8
 73
4
 74
0
 40
0
 40
0
 40
0
 40
0
 40
1
 40
1
 40
1
 40
1
 10
119.769280
 20
135.524060
 30
0.0
 10
119.769280
 20
135.995090
 30
0.0
 10
119.916480
 20
136.613330
 30
0.0
 10
120.181440
 20
137.290450
 30
0.0
  0
SPLINE
  5
176
100
AcDbEntity
  8
Calque_1
 62
7
100
AcDbSpline
 70
8
 71
3
 72
8
 73
4
 74
0
 40
0
 40
0
 40
0
 40
0
 40
1
 40
1
 40
1
 40
1
 10
120.181440
 20
137.290450
 30
0.0
 10
120.681920
 20
138.468040
 30
0.0
 10
122.036150
 20
140.676020
 30
0.0
 10
122.595500
 20
141.941930
 30
0.0
  0
SPLINE
  5
177
100
AcDbEntity
  8
Calque_1
 62
7
100
AcDbSpline
 70
8
 71
3
 72
8
 73
4
 74
0
 40
0
 40
0
 40
0
 40
0
 40
1
 40
1
 40
1
 40
1
 10
122.595500
 20
141.941930
 30
0.0
 10
123.360940
 20
143.413920
 30
0.0
 10
123.125420
 20
144.679840
 30
0.0
 10
122.566100
 20
145.268630
 30
0.0
  0
SPLINE
  5
178
100
AcDbEntity
  8
Calque_1
 62
7
100
AcDbSpline
 70
8
 71
3
 72
8
 73
4
 74
0
 40
0
 40
0
 40
0
 40
0
 40
1
 40
1
 40
1
 40
1
 10
122.566100
 20
145.268630
 30
0.0
 10
122.183390
 20
145.710230
 30
0.0
 10
121.830110
 20
145.651350
 30
0.0
 10
121.388510
 20
145.062550
 30
0.0
  0
SPLINE
  5
179
100
AcDbEntity
  8
Calque_1
 62
7
100
AcDbSpline
 70
8
 71
3
 72
8
 73
4
 74
0
 40
0
 40
0
 40
0
 40
0
 40
1
 40
1
 40
1
 40
1
 10
121.388510
 20
145.062550
 30
0.0
 10
120.299240
 20
143.531680
 30
0.0
 10
118.415090
 20
140.116670
 30
0.0
 10
117.679100
 20
138.055880
 30
0.0
  0
SPLINE
  5
17a
100
AcDbEntity
  8
Calque_1
 62
7
100
AcDbSpline
 70
8
 71
3
 72
8
 73
4
 74
0
 40
0
 40
0
 40
0
 40
0
 40
1
 40
1
 40
1
 40
1
 10
117.679100
 20
138.055880
 30
0.0
 10
117.443580
 20
137.290450
 30
0.0
 10
117.325820
 20
136.672210
 30
0.0
 10
117.325820
 20
136.112850
 30
0.0
  0
SPLINE
  5
17b
100
AcDbEntity
  8
Calque_1
 62
7
100
AcDbSpline
 70
8
 71
3
 72
8
 73
4
 74
0
 40
0
 40
0
 40
0
 40
0
 40
1
 40
1
 40
1
 40
1
 10
117.325820
 20
136.112850
 30
0.0
 10
117.325820
 20
134.640860
 30
0.0
 10
118.120690
 20
133.610470
 30
0.0
 10
119.916520
 20
133.610470
 30
0.0
  0
SPLINE
  5
17c
100
AcDbEntity
  8
Calque_1
 62
7
100
AcDbSpline
 70
8
 71
3
 72
8
 73
4
 74
0
 40
0
 40
0
 40
0
 40
0
 40
1
 40
1
 40
1
 40
1
 10
119.916520
 20
133.610470
 30
0.0
 10
121.653470
 20
133.610470
 30
0.0
 10
123.684820
 20
134.846940
 30
0.0
 10
124.568010
 20
136.701650
 30
0.0
  0
LWPOLYLINE
  5
17d
100
AcDbEntity
  8
Calque_1
 62
7
100
AcDbPolyline
 90
1
 70
1
 10
122.389430
 20
147.035000
 30
0.0
  0
SPLINE
  5
17e
100
AcDbEntity
  8
Calque_1
 62
7
100
AcDbSpline
 70
8
 71
3
 72
8
 73
4
 74
0
 40
0
 40
0
 40
0
 40
0
 40
1
 40
1
 40
1
 40
1
 10
127.129230
 20
142.000790
 30
0.0
 10
127.276430
 20
142.589590
 30
0.0
 10
127.335310
 20
143.119510
 30
0.0
 10
127.335310
 20
143.590540
 30
0.0
  0
SPLINE
  5
17f
100
AcDbEntity
  8
Calque_1
 62
7
100
AcDbSpline
 70
8
 71
3
 72
8
 73
4
 74
0
 40
0
 40
0
 40
0
 40
0
 40
1
 40
1
 40
1
 40
1
 10
127.335310
 20
143.590540
 30
0.0
 10
127.335310
 20
144.473740
 30
0.0
 10
127.011470
 20
145.180290
 30
0.0
 10
126.334360
 20
145.769090
 30
0.0
  0
SPLINE
  5
180
100
AcDbEntity
  8
Calque_1
 62
7
100
AcDbSpline
 70
8
 71
3
 72
8
 73
4
 74
0
 40
0
 40
0
 40
0
 40
0
 40
1
 40
1
 40
1
 40
1
 10
126.334360
 20
145.769090
 30
0.0
 10
125.863320
 20
146.151810
 30
0.0
 10
125.451160
 20
146.004610
 30
0.0
 10
125.274520
 20
145.474690
 30
0.0
  0
SPLINE
  5
181
100
AcDbEntity
  8
Calque_1
 62
7
100
AcDbSpline
 70
8
 71
3
 72
8
 73
4
 74
0
 40
0
 40
0
 40
0
 40
0
 40
1
 40
1
 40
1
 40
1
 10
125.274520
 20
145.474690
 30
0.0
 10
124.244130
 20
142.412950
 30
0.0
 10
123.478700
 20
138.320820
 30
0.0
 10
123.360940
 20
136.289470
 30
0.0
  0
SPLINE
  5
182
100
AcDbEntity
  8
Calque_1
 62
7
100
AcDbSpline
 70
8
 71
3
 72
8
 73
4
 74
0
 40
0
 40
0
 40
0
 40
0
 40
1
 40
1
 40
1
 40
1
 10
123.360940
 20
136.289470
 30
0.0
 10
123.272640
 20
134.729160
 30
0.0
 10
123.773090
 20
134.052050
 30
0.0
 10
124.980130
 20
133.492690
 30
0.0
  0
SPLINE
  5
183
100
AcDbEntity
  8
Calque_1
 62
7
100
AcDbSpline
 70
8
 71
3
 72
8
 73
4
 74
0
 40
0
 40
0
 40
0
 40
0
 40
1
 40
1
 40
1
 40
1
 10
124.980130
 20
133.492690
 30
0.0
 10
125.421720
 20
133.286610
 30
0.0
 10
125.745560
 20
133.522090
 30
0.0
 10
125.951640
 20
133.845970
 30
0.0
  0
SPLINE
  5
184
100
AcDbEntity
  8
Calque_1
 62
7
100
AcDbSpline
 70
8
 71
3
 72
8
 73
4
 74
0
 40
0
 40
0
 40
0
 40
0
 40
1
 40
1
 40
1
 40
1
 10
125.951640
 20
133.845970
 30
0.0
 10
128.071310
 20
137.202110
 30
0.0
 10
130.073210
 20
139.557290
 30
0.0
 10
132.752230
 20
142.766230
 30
0.0
  0
SPLINE
  5
185
100
AcDbEntity
  8
Calque_1
 62
7
100
AcDbSpline
 70
8
 71
3
 72
8
 73
4
 74
0
 40
0
 40
0
 40
0
 40
0
 40
1
 40
1
 40
1
 40
1
 10
132.752230
 20
142.766230
 30
0.0
 10
133.753190
 20
143.973260
 30
0.0
 10
134.077030
 20
144.768140
 30
0.0
 10
133.988710
 20
145.415810
 30
0.0
  0
SPLINE
  5
186
100
AcDbEntity
  8
Calque_1
 62
7
100
AcDbSpline
 70
8
 71
3
 72
8
 73
4
 74
0
 40
0
 40
0
 40
0
 40
0
 40
1
 40
1
 40
1
 40
1
 10
133.988710
 20
145.415810
 30
0.0
 10
133.900410
 20
146.122370
 30
0.0
 10
133.547110
 20
146.240130
 30
0.0
 10
132.899430
 20
145.621890
 30
0.0
  0
SPLINE
  5
187
100
AcDbEntity
  8
Calque_1
 62
7
100
AcDbSpline
 70
8
 71
3
 72
8
 73
4
 74
0
 40
0
 40
0
 40
0
 40
0
 40
1
 40
1
 40
1
 40
1
 10
132.899430
 20
145.621890
 30
0.0
 10
131.162480
 20
143.826060
 30
0.0
 10
127.953550
 20
139.616170
 30
0.0
 10
125.833880
 20
136.348350
 30
0.0
  0
SPLINE
  5
188
100
AcDbEntity
  8
Calque_1
 62
7
100
AcDbSpline
 70
8
 71
3
 72
8
 73
4
 74
0
 40
0
 40
0
 40
0
 40
0
 40
1
 40
1
 40
1
 40
1
 10
125.833880
 20
136.348350
 30
0.0
 10
126.098840
 20
137.908660
 30
0.0
 10
126.393240
 20
139.086250
 30
0.0
 10
127.129230
 20
142.000790
 30
0.0
  0
LWPOLYLINE
  5
189
100
AcDbEntity
  8
Calque_1
 62
7
100
AcDbPolyline
 90
1
 70
1
 10
124.568010
 20
136.701650
 30
0.0
  0
SPLINE
  5
18a
100
AcDbEntity
  8
Calque_1
 62
7
100
AcDbSpline
 70
8
 71
3
 72
8
 73
4
 74
0
 40
0
 40
0
 40
0
 40
0
 40
1
 40
1
 40
1
 40
1
 10
139.317310
 20
144.091020
 30
0.0
 10
139.641150
 20
143.826060
 30
0.0
 10
139.022910
 20
142.442390
 30
0.0
 10
138.169160
 20
141.294240
 30
0.0
  0
SPLINE
  5
18b
100
AcDbEntity
  8
Calque_1
 62
7
100
AcDbSpline
 70
8
 71
3
 72
8
 73
4
 74
0
 40
0
 40
0
 40
0
 40
0
 40
1
 40
1
 40
1
 40
1
 10
138.169160
 20
141.294240
 30
0.0
 10
137.580360
 20
140.499360
 30
0.0
 10
136.638290
 20
139.616170
 30
0.0
 10
135.931730
 20
139.616170
 30
0.0
  0
SPLINE
  5
18c
100
AcDbEntity
  8
Calque_1
 62
7
100
AcDbSpline
 70
8
 71
3
 72
8
 73
4
 74
0
 40
0
 40
0
 40
0
 40
0
 40
1
 40
1
 40
1
 40
1
 10
135.931730
 20
139.616170
 30
0.0
 10
135.725660
 20
139.616170
 30
0.0
 10
135.519580
 20
139.675070
 30
0.0
 10
135.284060
 20
139.822250
 30
0.0
  0
SPLINE
  5
18d
100
AcDbEntity
  8
Calque_1
 62
7
100
AcDbSpline
 70
8
 71
3
 72
8
 73
4
 74
0
 40
0
 40
0
 40
0
 40
0
 40
1
 40
1
 40
1
 40
1
 10
135.284060
 20
139.822250
 30
0.0
 10
136.697170
 20
142.648470
 30
0.0
 10
138.875710
 20
144.444300
 30
0.0
 10
139.317310
 20
144.091020
 30
0.0
  0
LWPOLYLINE
  5
18e
100
AcDbEntity
  8
Calque_1
 62
7
100
AcDbPolyline
 90
1
 70
1
 10
127.129230
 20
142.000790
 30
0.0
  0
SPLINE
  5
18f
100
AcDbEntity
  8
Calque_1
 62
7
100
AcDbSpline
 70
8
 71
3
 72
8
 73
4
 74
0
 40
0
 40
0
 40
0
 40
0
 40
1
 40
1
 40
1
 40
1
 10
141.525300
 20
142.913430
 30
0.0
 10
141.525300
 20
143.296150
 30
0.0
 10
141.407540
 20
143.737740
 30
0.0
 10
141.230900
 20
144.002700
 30
0.0
  0
SPLINE
  5
190
100
AcDbEntity
  8
Calque_1
 62
7
100
AcDbSpline
 70
8
 71
3
 72
8
 73
4
 74
0
 40
0
 40
0
 40
0
 40
0
 40
1
 40
1
 40
1
 40
1
 10
141.230900
 20
144.002700
 30
0.0
 10
140.818740
 20
144.591500
 30
0.0
 10
140.229950
 20
145.062530
 30
0.0
 10
139.405630
 20
145.533570
 30
0.0
  0
SPLINE
  5
191
100
AcDbEntity
  8
Calque_1
 62
7
100
AcDbSpline
 70
8
 71
3
 72
8
 73
4
 74
0
 40
0
 40
0
 40
0
 40
0
 40
1
 40
1
 40
1
 40
1
 10
139.405630
 20
145.533570
 30
0.0
 10
139.111230
 20
145.710210
 30
0.0
 10
138.787400
 20
145.769090
 30
0.0
 10
138.375240
 20
145.769090
 30
0.0
  0
SPLINE
  5
192
100
AcDbEntity
  8
Calque_1
 62
7
100
AcDbSpline
 70
8
 71
3
 72
8
 73
4
 74
0
 40
0
 40
0
 40
0
 40
0
 40
1
 40
1
 40
1
 40
1
 10
138.375240
 20
145.769090
 30
0.0
 10
136.667730
 20
145.769090
 30
0.0
 10
134.283110
 20
144.208780
 30
0.0
 10
132.752240
 20
141.088160
 30
0.0
  0
SPLINE
  5
193
100
AcDbEntity
  8
Calque_1
 62
7
100
AcDbSpline
 70
8
 71
3
 72
8
 73
4
 74
0
 40
0
 40
0
 40
0
 40
0
 40
1
 40
1
 40
1
 40
1
 10
132.752240
 20
141.088160
 30
0.0
 10
132.134000
 20
139.910570
 30
0.0
 10
131.839600
 20
138.762420
 30
0.0
 10
131.839600
 20
137.702580
 30
0.0
  0
SPLINE
  5
194
100
AcDbEntity
  8
Calque_1
 62
7
100
AcDbSpline
 70
8
 71
3
 72
8
 73
4
 74
0
 40
0
 40
0
 40
0
 40
0
 40
1
 40
1
 40
1
 40
1
 10
131.839600
 20
137.702580
 30
0.0
 10
131.839600
 20
135.347400
 30
0.0
 10
133.341030
 20
133.551570
 30
0.0
 10
136.078930
 20
133.581010
 30
0.0
  0
SPLINE
  5
195
100
AcDbEntity
  8
Calque_1
 62
7
100
AcDbSpline
 70
8
 71
3
 72
8
 73
4
 74
0
 40
0
 40
0
 40
0
 40
0
 40
1
 40
1
 40
1
 40
1
 10
136.078930
 20
133.581010
 30
0.0
 10
138.375240
 20
133.610410
 30
0.0
 10
140.730420
 20
134.994120
 30
0.0
 10
141.966890
 20
136.789950
 30
0.0
  0
SPLINE
  5
196
100
AcDbEntity
  8
Calque_1
 62
7
100
AcDbSpline
 70
8
 71
3
 72
8
 73
4
 74
0
 40
0
 40
0
 40
0
 40
0
 40
1
 40
1
 40
1
 40
1
 10
141.966890
 20
136.789950
 30
0.0
 10
142.496810
 20
137.584820
 30
0.0
 10
142.467370
 20
138.438580
 30
0.0
 10
142.379050
 20
138.703540
 30
0.0
  0
SPLINE
  5
197
100
AcDbEntity
  8
Calque_1
 62
7
100
AcDbSpline
 70
8
 71
3
 72
8
 73
4
 74
0
 40
0
 40
0
 40
0
 40
0
 40
1
 40
1
 40
1
 40
1
 10
142.379050
 20
138.703540
 30
0.0
 10
142.143530
 20
139.292330
 30
0.0
 10
141.760810
 20
139.233450
 30
0.0
 10
141.436980
 20
138.762440
 30
0.0
  0
SPLINE
  5
198
100
AcDbEntity
  8
Calque_1
 62
7
100
AcDbSpline
 70
8
 71
3
 72
8
 73
4
 74
0
 40
0
 40
0
 40
0
 40
0
 40
1
 40
1
 40
1
 40
1
 10
141.436980
 20
138.762440
 30
0.0
 10
140.229950
 20
136.937170
 30
0.0
 10
138.257480
 20
134.758620
 30
0.0
 10
136.020050
 20
134.758620
 30
0.0
  0
SPLINE
  5
199
100
AcDbEntity
  8
Calque_1
 62
7
100
AcDbSpline
 70
8
 71
3
 72
8
 73
4
 74
0
 40
0
 40
0
 40
0
 40
0
 40
1
 40
1
 40
1
 40
1
 10
136.020050
 20
134.758620
 30
0.0
 10
135.136860
 20
134.758620
 30
0.0
 10
134.606940
 20
135.671260
 30
0.0
 10
134.606940
 20
136.966610
 30
0.0
  0
SPLINE
  5
19a
100
AcDbEntity
  8
Calque_1
 62
7
100
AcDbSpline
 70
8
 71
3
 72
8
 73
4
 74
0
 40
0
 40
0
 40
0
 40
0
 40
1
 40
1
 40
1
 40
1
 10
134.606940
 20
136.966610
 30
0.0
 10
134.606940
 20
137.496520
 30
0.0
 10
134.695240
 20
138.114760
 30
0.0
 10
134.871900
 20
138.703560
 30
0.0
  0
SPLINE
  5
19b
100
AcDbEntity
  8
Calque_1
 62
7
100
AcDbSpline
 70
8
 71
3
 72
8
 73
4
 74
0
 40
0
 40
0
 40
0
 40
0
 40
1
 40
1
 40
1
 40
1
 10
134.871900
 20
138.703560
 30
0.0
 10
135.549020
 20
138.261960
 30
0.0
 10
136.255570
 20
138.055880
 30
0.0
 10
136.962130
 20
138.055880
 30
0.0
  0
SPLINE
  5
19c
100
AcDbEntity
  8
Calque_1
 62
7
100
AcDbSpline
 70
8
 71
3
 72
8
 73
4
 74
0
 40
0
 40
0
 40
0
 40
0
 40
1
 40
1
 40
1
 40
1
 10
136.962130
 20
138.055880
 30
0.0
 10
139.552830
 20
138.055880
 30
0.0
 10
141.525300
 20
141.147060
 30
0.0
 10
141.525300
 20
142.913450
 30
0.0
  0
LWPOLYLINE
  5
19d
100
AcDbEntity
  8
Calque_1
 62
7
100
AcDbPolyline
 90
1
 70
1
 10
139.317310
 20
144.091020
 30
0.0
  0
LWPOLYLINE
  5
19e
100
AcDbEntity
  8
Calque_1
 62
7
100
AcDbPolyline
 90
1
 70
1
 10
141.525300
 20
142.913450
 30
0.0
  0
SPLINE
  5
19f
100
AcDbEntity
  8
Calque_1
 62
7
100
AcDbSpline
 70
8
 71
3
 72
8
 73
4
 74
0
 40
0
 40
0
 40
0
 40
0
 40
1
 40
1
 40
1
 40
1
 10
79.333592
 20
124.865733
 30
0.0
 10
79.333592
 20
124.776183
 30
0.0
 10
79.340481
 20
124.641859
 30
0.0
 10
79.354259
 20
124.462761
 30
0.0
  0
SPLINE
  5
1a0
100
AcDbEntity
  8
Calque_1
 62
7
100
AcDbSpline
 70
8
 71
3
 72
8
 73
4
 74
0
 40
0
 40
0
 40
0
 40
0
 40
1
 40
1
 40
1
 40
1
 10
79.354259
 20
124.462761
 30
0.0
 10
79.368038
 20
124.283661
 30
0.0
 10
79.374927
 20
124.149336
 30
0.0
 10
79.374927
 20
124.059786
 30
0.0
  0
SPLINE
  5
1a1
100
AcDbEntity
  8
Calque_1
 62
7
100
AcDbSpline
 70
8
 71
3
 72
8
 73
4
 74
0
 40
0
 40
0
 40
0
 40
0
 40
1
 40
1
 40
1
 40
1
 10
79.374927
 20
124.059786
 30
0.0
 10
79.374927
 20
122.760163
 30
0.0
 10
78.735448
 20
122.050652
 30
0.0
 10
77.456490
 20
121.931253
 30
0.0
  0
SPLINE
  5
1a2
100
AcDbEntity
  8
Calque_1
 62
7
100
AcDbSpline
 70
8
 71
3
 72
8
 73
4
 74
0
 40
0
 40
0
 40
0
 40
0
 40
1
 40
1
 40
1
 40
1
 10
77.456490
 20
121.931253
 30
0.0
 10
76.992669
 20
121.903698
 30
0.0
 10
76.532291
 20
121.889921
 30
0.0
 10
76.075357
 20
121.889921
 30
0.0
  0
LWPOLYLINE
  5
1a3
100
AcDbEntity
  8
Calque_1
 62
7
100
AcDbPolyline
 90
2
 70
0
 10
78.376094
 20
124.865733
 30
0.0
 10
79.333592
 20
124.865733
 30
0.0
  0
SPLINE
  5
1a4
100
AcDbEntity
  8
Calque_1
 62
7
100
AcDbSpline
 70
8
 71
3
 72
8
 73
4
 74
0
 40
0
 40
0
 40
0
 40
0
 40
1
 40
1
 40
1
 40
1
 10
74.862990
 20
121.889921
 30
0.0
 10
74.249915
 20
121.935846
 30
0.0
 10
73.773463
 20
122.087393
 30
0.0
 10
73.433634
 20
122.344562
 30
0.0
  0
SPLINE
  5
1a5
100
AcDbEntity
  8
Calque_1
 62
7
100
AcDbSpline
 70
8
 71
3
 72
8
 73
4
 74
0
 40
0
 40
0
 40
0
 40
0
 40
1
 40
1
 40
1
 40
1
 10
73.433634
 20
122.344562
 30
0.0
 10
73.096101
 20
122.604026
 30
0.0
 10
72.860746
 20
122.934671
 30
0.0
 10
72.727568
 20
123.336499
 30
0.0
  0
SPLINE
  5
1a6
100
AcDbEntity
  8
Calque_1
 62
7
100
AcDbSpline
 70
8
 71
3
 72
8
 73
4
 74
0
 40
0
 40
0
 40
0
 40
0
 40
1
 40
1
 40
1
 40
1
 10
72.727568
 20
123.336499
 30
0.0
 10
72.594391
 20
123.740622
 30
0.0
 10
72.517469
 20
124.225109
 30
0.0
 10
72.496804
 20
124.789961
 30
0.0
  0
SPLINE
  5
1a7
100
AcDbEntity
  8
Calque_1
 62
7
100
AcDbSpline
 70
8
 71
3
 72
8
 73
4
 74
0
 40
0
 40
0
 40
0
 40
0
 40
1
 40
1
 40
1
 40
1
 10
72.496804
 20
124.789961
 30
0.0
 10
72.476136
 20
125.354814
 30
0.0
 10
72.460063
 20
125.840450
 30
0.0
 10
72.448584
 20
126.246869
 30
0.0
  0
LWPOLYLINE
  5
1a8
100
AcDbEntity
  8
Calque_1
 62
7
100
AcDbPolyline
 90
2
 70
0
 10
76.075357
 20
121.889921
 30
0.0
 10
74.862990
 20
121.889921
 30
0.0
  0
SPLINE
  5
1a9
100
AcDbEntity
  8
Calque_1
 62
7
100
AcDbSpline
 70
8
 71
3
 72
8
 73
4
 74
0
 40
0
 40
0
 40
0
 40
0
 40
1
 40
1
 40
1
 40
1
 10
72.448584
 20
127.617672
 30
0.0
 10
72.448584
 20
128.194005
 30
0.0
 10
72.510581
 20
128.683085
 30
0.0
 10
72.634575
 20
129.084910
 30
0.0
  0
SPLINE
  5
1aa
100
AcDbEntity
  8
Calque_1
 62
7
100
AcDbSpline
 70
8
 71
3
 72
8
 73
4
 74
0
 40
0
 40
0
 40
0
 40
0
 40
1
 40
1
 40
1
 40
1
 10
72.634575
 20
129.084910
 30
0.0
 10
72.760863
 20
129.489033
 30
0.0
 10
72.985886
 20
129.813939
 30
0.0
 10
73.309642
 20
130.059629
 30
0.0
  0
SPLINE
  5
1ab
100
AcDbEntity
  8
Calque_1
 62
7
100
AcDbSpline
 70
8
 71
3
 72
8
 73
4
 74
0
 40
0
 40
0
 40
0
 40
0
 40
1
 40
1
 40
1
 40
1
 10
73.309642
 20
130.059629
 30
0.0
 10
73.635696
 20
130.307612
 30
0.0
 10
74.086890
 20
130.461453
 30
0.0
 10
74.663223
 20
130.521154
 30
0.0
  0
SPLINE
  5
1ac
100
AcDbEntity
  8
Calque_1
 62
7
100
AcDbSpline
 70
8
 71
3
 72
8
 73
4
 74
0
 40
0
 40
0
 40
0
 40
0
 40
1
 40
1
 40
1
 40
1
 10
74.663223
 20
130.521154
 30
0.0
 10
75.021423
 20
130.569374
 30
0.0
 10
75.581685
 20
130.593484
 30
0.0
 10
76.344007
 20
130.593484
 30
0.0
  0
SPLINE
  5
1ad
100
AcDbEntity
  8
Calque_1
 62
7
100
AcDbSpline
 70
8
 71
3
 72
8
 73
4
 74
0
 40
0
 40
0
 40
0
 40
0
 40
1
 40
1
 40
1
 40
1
 10
76.344007
 20
130.593484
 30
0.0
 10
76.952487
 20
130.593484
 30
0.0
 10
77.431234
 20
130.559041
 30
0.0
 10
77.780248
 20
130.490156
 30
0.0
  0
SPLINE
  5
1ae
100
AcDbEntity
  8
Calque_1
 62
7
100
AcDbSpline
 70
8
 71
3
 72
8
 73
4
 74
0
 40
0
 40
0
 40
0
 40
0
 40
1
 40
1
 40
1
 40
1
 10
77.780248
 20
130.490156
 30
0.0
 10
78.131559
 20
130.421271
 30
0.0
 10
78.408246
 20
130.293834
 30
0.0
 10
78.610308
 20
130.107845
 30
0.0
  0
SPLINE
  5
1af
100
AcDbEntity
  8
Calque_1
 62
7
100
AcDbSpline
 70
8
 71
3
 72
8
 73
4
 74
0
 40
0
 40
0
 40
0
 40
0
 40
1
 40
1
 40
1
 40
1
 10
78.610308
 20
130.107845
 30
0.0
 10
78.812368
 20
129.921858
 30
0.0
 10
78.960469
 20
129.653209
 30
0.0
 10
79.054611
 20
129.301898
 30
0.0
  0
SPLINE
  5
1b0
100
AcDbEntity
  8
Calque_1
 62
7
100
AcDbSpline
 70
8
 71
3
 72
8
 73
4
 74
0
 40
0
 40
0
 40
0
 40
0
 40
1
 40
1
 40
1
 40
1
 10
79.054611
 20
129.301898
 30
0.0
 10
79.148753
 20
128.952882
 30
0.0
 10
79.214193
 20
128.470691
 30
0.0
 10
79.250932
 20
127.855324
 30
0.0
  0
LWPOLYLINE
  5
1b1
100
AcDbEntity
  8
Calque_1
 62
7
100
AcDbPolyline
 90
2
 70
0
 10
72.448584
 20
126.246869
 30
0.0
 10
72.448584
 20
127.617672
 30
0.0
  0
SPLINE
  5
1b2
100
AcDbEntity
  8
Calque_1
 62
7
100
AcDbSpline
 70
8
 71
3
 72
8
 73
4
 74
0
 40
0
 40
0
 40
0
 40
0
 40
1
 40
1
 40
1
 40
1
 10
78.289992
 20
127.855324
 30
0.0
 10
78.289992
 20
128.348997
 30
0.0
 10
78.256699
 20
128.723269
 30
0.0
 10
78.190111
 20
128.978141
 30
0.0
  0
SPLINE
  5
1b3
100
AcDbEntity
  8
Calque_1
 62
7
100
AcDbSpline
 70
8
 71
3
 72
8
 73
4
 74
0
 40
0
 40
0
 40
0
 40
0
 40
1
 40
1
 40
1
 40
1
 10
78.190111
 20
128.978141
 30
0.0
 10
78.125818
 20
129.235310
 30
0.0
 10
77.983457
 20
129.427038
 30
0.0
 10
77.763026
 20
129.553327
 30
0.0
  0
SPLINE
  5
1b4
100
AcDbEntity
  8
Calque_1
 62
7
100
AcDbSpline
 70
8
 71
3
 72
8
 73
4
 74
0
 40
0
 40
0
 40
0
 40
0
 40
1
 40
1
 40
1
 40
1
 10
77.763026
 20
129.553327
 30
0.0
 10
77.544893
 20
129.681910
 30
0.0
 10
77.208506
 20
129.746202
 30
0.0
 10
76.753867
 20
129.746202
 30
0.0
  0
SPLINE
  5
1b5
100
AcDbEntity
  8
Calque_1
 62
7
100
AcDbSpline
 70
8
 71
3
 72
8
 73
4
 74
0
 40
0
 40
0
 40
0
 40
0
 40
1
 40
1
 40
1
 40
1
 10
76.753867
 20
129.746202
 30
0.0
 10
76.211977
 20
129.746202
 30
0.0
 10
75.604646
 20
129.723240
 30
0.0
 10
74.931873
 20
129.677318
 30
0.0
  0
SPLINE
  5
1b6
100
AcDbEntity
  8
Calque_1
 62
7
100
AcDbSpline
 70
8
 71
3
 72
8
 73
4
 74
0
 40
0
 40
0
 40
0
 40
0
 40
1
 40
1
 40
1
 40
1
 10
74.931873
 20
129.677318
 30
0.0
 10
74.518567
 20
129.642877
 30
0.0
 10
74.206290
 20
129.547586
 30
0.0
 10
73.995044
 20
129.391446
 30
0.0
  0
SPLINE
  5
1b7
100
AcDbEntity
  8
Calque_1
 62
7
100
AcDbSpline
 70
8
 71
3
 72
8
 73
4
 74
0
 40
0
 40
0
 40
0
 40
0
 40
1
 40
1
 40
1
 40
1
 10
73.995044
 20
129.391446
 30
0.0
 10
73.786094
 20
129.237606
 30
0.0
 10
73.647177
 20
129.025212
 30
0.0
 10
73.578292
 20
128.754264
 30
0.0
  0
SPLINE
  5
1b8
100
AcDbEntity
  8
Calque_1
 62
7
100
AcDbSpline
 70
8
 71
3
 72
8
 73
4
 74
0
 40
0
 40
0
 40
0
 40
0
 40
1
 40
1
 40
1
 40
1
 10
73.578292
 20
128.754264
 30
0.0
 10
73.511705
 20
128.485617
 30
0.0
 10
73.478411
 20
128.120530
 30
0.0
 10
73.478411
 20
127.659003
 30
0.0
  0
LWPOLYLINE
  5
1b9
100
AcDbEntity
  8
Calque_1
 62
7
100
AcDbPolyline
 90
2
 70
0
 10
79.250932
 20
127.855324
 30
0.0
 10
78.289992
 20
127.855324
 30
0.0
  0
SPLINE
  5
1ba
100
AcDbEntity
  8
Calque_1
 62
7
100
AcDbSpline
 70
8
 71
3
 72
8
 73
4
 74
0
 40
0
 40
0
 40
0
 40
0
 40
1
 40
1
 40
1
 40
1
 10
73.478411
 20
125.668237
 30
0.0
 10
73.478411
 20
124.490313
 30
0.0
 10
73.592070
 20
123.695845
 30
0.0
 10
73.819387
 20
123.284834
 30
0.0
  0
SPLINE
  5
1bb
100
AcDbEntity
  8
Calque_1
 62
7
100
AcDbSpline
 70
8
 71
3
 72
8
 73
4
 74
0
 40
0
 40
0
 40
0
 40
0
 40
1
 40
1
 40
1
 40
1
 10
73.819387
 20
123.284834
 30
0.0
 10
74.023744
 20
122.917449
 30
0.0
 10
74.596634
 20
122.733757
 30
0.0
 10
75.538057
 20
122.733757
 30
0.0
  0
SPLINE
  5
1bc
100
AcDbEntity
  8
Calque_1
 62
7
100
AcDbSpline
 70
8
 71
3
 72
8
 73
4
 74
0
 40
0
 40
0
 40
0
 40
0
 40
1
 40
1
 40
1
 40
1
 10
75.538057
 20
122.733757
 30
0.0
 10
75.606942
 20
122.733757
 30
0.0
 10
75.732082
 20
122.729161
 30
0.0
 10
75.913477
 20
122.719967
 30
0.0
  0
SPLINE
  5
1bd
100
AcDbEntity
  8
Calque_1
 62
7
100
AcDbSpline
 70
8
 71
3
 72
8
 73
4
 74
0
 40
0
 40
0
 40
0
 40
0
 40
1
 40
1
 40
1
 40
1
 10
75.913477
 20
122.719967
 30
0.0
 10
76.094874
 20
122.710774
 30
0.0
 10
76.238384
 20
122.706177
 30
0.0
 10
76.344007
 20
122.706177
 30
0.0
  0
SPLINE
  5
1be
100
AcDbEntity
  8
Calque_1
 62
7
100
AcDbSpline
 70
8
 71
3
 72
8
 73
4
 74
0
 40
0
 40
0
 40
0
 40
0
 40
1
 40
1
 40
1
 40
1
 10
76.344007
 20
122.706177
 30
0.0
 10
76.931822
 20
122.706177
 30
0.0
 10
77.417457
 20
122.786542
 30
0.0
 10
77.800912
 20
122.947272
 30
0.0
  0
SPLINE
  5
1bf
100
AcDbEntity
  8
Calque_1
 62
7
100
AcDbSpline
 70
8
 71
3
 72
8
 73
4
 74
0
 40
0
 40
0
 40
0
 40
0
 40
1
 40
1
 40
1
 40
1
 10
77.800912
 20
122.947272
 30
0.0
 10
78.184369
 20
123.110299
 30
0.0
 10
78.385283
 20
123.424871
 30
0.0
 10
78.403654
 20
123.890989
 30
0.0
  0
SPLINE
  5
1c0
100
AcDbEntity
  8
Calque_1
 62
7
100
AcDbSpline
 70
8
 71
3
 72
8
 73
4
 74
0
 40
0
 40
0
 40
0
 40
0
 40
1
 40
1
 40
1
 40
1
 10
78.403654
 20
123.890989
 30
0.0
 10
78.403654
 20
124.003502
 30
0.0
 10
78.399057
 20
124.168825
 30
0.0
 10
78.389863
 20
124.386958
 30
0.0
  0
SPLINE
  5
1c1
100
AcDbEntity
  8
Calque_1
 62
7
100
AcDbSpline
 70
8
 71
3
 72
8
 73
4
 74
0
 40
0
 40
0
 40
0
 40
0
 40
1
 40
1
 40
1
 40
1
 10
78.389863
 20
124.386958
 30
0.0
 10
78.380670
 20
124.605094
 30
0.0
 10
78.376073
 20
124.764676
 30
0.0
 10
78.376073
 20
124.865705
 30
0.0
  0
LWPOLYLINE
  5
1c2
100
AcDbEntity
  8
Calque_1
 62
7
100
AcDbPolyline
 90
2
 70
0
 10
73.478411
 20
127.659003
 30
0.0
 10
73.478411
 20
125.668237
 30
0.0
  0
SPLINE
  5
1c3
100
AcDbEntity
  8
Calque_1
 62
7
100
AcDbSpline
 70
8
 71
3
 72
8
 73
4
 74
0
 40
0
 40
0
 40
0
 40
0
 40
1
 40
1
 40
1
 40
1
 10
79.843336
 20
125.134383
 30
0.0
 10
79.843336
 20
125.866857
 30
0.0
 10
79.906480
 20
126.442043
 30
0.0
 10
80.032769
 20
126.859941
 30
0.0
  0
SPLINE
  5
1c4
100
AcDbEntity
  8
Calque_1
 62
7
100
AcDbSpline
 70
8
 71
3
 72
8
 73
4
 74
0
 40
0
 40
0
 40
0
 40
0
 40
1
 40
1
 40
1
 40
1
 10
80.032769
 20
126.859941
 30
0.0
 10
80.161352
 20
127.277840
 30
0.0
 10
80.409336
 20
127.587820
 30
0.0
 10
80.776720
 20
127.789883
 30
0.0
  0
SPLINE
  5
1c5
100
AcDbEntity
  8
Calque_1
 62
7
100
AcDbSpline
 70
8
 71
3
 72
8
 73
4
 74
0
 40
0
 40
0
 40
0
 40
0
 40
1
 40
1
 40
1
 40
1
 10
80.776720
 20
127.789883
 30
0.0
 10
81.144104
 20
127.994240
 30
0.0
 10
81.688292
 20
128.096419
 30
0.0
 10
82.409285
 20
128.096419
 30
0.0
  0
SPLINE
  5
1c6
100
AcDbEntity
  8
Calque_1
 62
7
100
AcDbSpline
 70
8
 71
3
 72
8
 73
4
 74
0
 40
0
 40
0
 40
0
 40
0
 40
1
 40
1
 40
1
 40
1
 10
82.409285
 20
128.096419
 30
0.0
 10
83.185383
 20
128.096419
 30
0.0
 10
83.769753
 20
128.011461
 30
0.0
 10
84.162395
 20
127.841545
 30
0.0
  0
SPLINE
  5
1c7
100
AcDbEntity
  8
Calque_1
 62
7
100
AcDbSpline
 70
8
 71
3
 72
8
 73
4
 74
0
 40
0
 40
0
 40
0
 40
0
 40
1
 40
1
 40
1
 40
1
 10
84.162395
 20
127.841545
 30
0.0
 10
84.557333
 20
127.673926
 30
0.0
 10
84.827132
 20
127.385759
 30
0.0
 10
84.971791
 20
126.977044
 30
0.0
  0
SPLINE
  5
1c8
100
AcDbEntity
  8
Calque_1
 62
7
100
AcDbSpline
 70
8
 71
3
 72
8
 73
4
 74
0
 40
0
 40
0
 40
0
 40
0
 40
1
 40
1
 40
1
 40
1
 10
84.971791
 20
126.977044
 30
0.0
 10
85.116447
 20
126.568330
 30
0.0
 10
85.188776
 20
125.972479
 30
0.0
 10
85.188776
 20
125.189491
 30
0.0
  0
SPLINE
  5
1c9
100
AcDbEntity
  8
Calque_1
 62
7
100
AcDbSpline
 70
8
 71
3
 72
8
 73
4
 74
0
 40
0
 40
0
 40
0
 40
0
 40
1
 40
1
 40
1
 40
1
 10
85.188776
 20
125.189491
 30
0.0
 10
85.188776
 20
124.367469
 30
0.0
 10
85.146297
 20
123.736028
 30
0.0
 10
85.061339
 20
123.295167
 30
0.0
  0
SPLINE
  5
1ca
100
AcDbEntity
  8
Calque_1
 62
7
100
AcDbSpline
 70
8
 71
3
 72
8
 73
4
 74
0
 40
0
 40
0
 40
0
 40
0
 40
1
 40
1
 40
1
 40
1
 10
85.061339
 20
123.295167
 30
0.0
 10
84.978678
 20
122.854306
 30
0.0
 10
84.755951
 20
122.499551
 30
0.0
 10
84.393159
 20
122.230901
 30
0.0
  0
SPLINE
  5
1cb
100
AcDbEntity
  8
Calque_1
 62
7
100
AcDbSpline
 70
8
 71
3
 72
8
 73
4
 74
0
 40
0
 40
0
 40
0
 40
0
 40
1
 40
1
 40
1
 40
1
 10
84.393159
 20
122.230901
 30
0.0
 10
84.032664
 20
121.964548
 30
0.0
 10
83.460923
 20
121.831371
 30
0.0
 10
82.677935
 20
121.831371
 30
0.0
  0
SPLINE
  5
1cc
100
AcDbEntity
  8
Calque_1
 62
7
100
AcDbSpline
 70
8
 71
3
 72
8
 73
4
 74
0
 40
0
 40
0
 40
0
 40
0
 40
1
 40
1
 40
1
 40
1
 10
82.677935
 20
121.831371
 30
0.0
 10
81.927093
 20
121.831371
 30
0.0
 10
81.351907
 20
121.902552
 30
0.0
 10
80.952377
 20
122.044914
 30
0.0
  0
SPLINE
  5
1cd
100
AcDbEntity
  8
Calque_1
 62
7
100
AcDbSpline
 70
8
 71
3
 72
8
 73
4
 74
0
 40
0
 40
0
 40
0
 40
0
 40
1
 40
1
 40
1
 40
1
 10
80.952377
 20
122.044914
 30
0.0
 10
80.555143
 20
122.189570
 30
0.0
 10
80.270421
 20
122.455923
 30
0.0
 10
80.098210
 20
122.843973
 30
0.0
  0
SPLINE
  5
1ce
100
AcDbEntity
  8
Calque_1
 62
7
100
AcDbSpline
 70
8
 71
3
 72
8
 73
4
 74
0
 40
0
 40
0
 40
0
 40
0
 40
1
 40
1
 40
1
 40
1
 10
80.098210
 20
122.843973
 30
0.0
 10
79.928294
 20
123.232022
 30
0.0
 10
79.843336
 20
123.802616
 30
0.0
 10
79.843336
 20
124.555755
 30
0.0
  0
LWPOLYLINE
  5
1cf
100
AcDbEntity
  8
Calque_1
 62
7
100
AcDbPolyline
 90
1
 70
1
 10
78.376073
 20
124.865705
 30
0.0
  0
LWPOLYLINE
  5
1d0
100
AcDbEntity
  8
Calque_1
 62
7
100
AcDbPolyline
 90
2
 70
0
 10
79.843336
 20
124.555755
 30
0.0
 10
79.843336
 20
125.134383
 30
0.0
  0
SPLINE
  5
1d1
100
AcDbEntity
  8
Calque_1
 62
7
100
AcDbSpline
 70
8
 71
3
 72
8
 73
4
 74
0
 40
0
 40
0
 40
0
 40
0
 40
1
 40
1
 40
1
 40
1
 10
80.759502
 20
124.624638
 30
0.0
 10
80.759502
 20
123.694697
 30
0.0
 10
80.881197
 20
123.097697
 30
0.0
 10
81.124588
 20
122.833639
 30
0.0
  0
SPLINE
  5
1d2
100
AcDbEntity
  8
Calque_1
 62
7
100
AcDbSpline
 70
8
 71
3
 72
8
 73
4
 74
0
 40
0
 40
0
 40
0
 40
0
 40
1
 40
1
 40
1
 40
1
 10
81.124588
 20
122.833639
 30
0.0
 10
81.296798
 20
122.663725
 30
0.0
 10
81.621704
 20
122.578768
 30
0.0
 10
82.099303
 20
122.578768
 30
0.0
  0
LWPOLYLINE
  5
1d3
100
AcDbEntity
  8
Calque_1
 62
7
100
AcDbPolyline
 90
2
 70
0
 10
80.759502
 20
125.134383
 30
0.0
 10
80.759502
 20
124.624638
 30
0.0
  0
SPLINE
  5
1d4
100
AcDbEntity
  8
Calque_1
 62
7
100
AcDbSpline
 70
8
 71
3
 72
8
 73
4
 74
0
 40
0
 40
0
 40
0
 40
0
 40
1
 40
1
 40
1
 40
1
 10
82.536722
 20
122.578768
 30
0.0
 10
82.922474
 20
122.578768
 30
0.0
 10
83.229010
 20
122.609766
 30
0.0
 10
83.456330
 20
122.671762
 30
0.0
  0
SPLINE
  5
1d5
100
AcDbEntity
  8
Calque_1
 62
7
100
AcDbSpline
 70
8
 71
3
 72
8
 73
4
 74
0
 40
0
 40
0
 40
0
 40
0
 40
1
 40
1
 40
1
 40
1
 10
83.456330
 20
122.671762
 30
0.0
 10
83.683649
 20
122.733757
 30
0.0
 10
83.860453
 20
122.857750
 30
0.0
 10
83.986742
 20
123.043739
 30
0.0
  0
SPLINE
  5
1d6
100
AcDbEntity
  8
Calque_1
 62
7
100
AcDbSpline
 70
8
 71
3
 72
8
 73
4
 74
0
 40
0
 40
0
 40
0
 40
0
 40
1
 40
1
 40
1
 40
1
 10
83.986742
 20
123.043739
 30
0.0
 10
84.115325
 20
123.229726
 30
0.0
 10
84.191098
 20
123.507560
 30
0.0
 10
84.214060
 20
123.877241
 30
0.0
  0
SPLINE
  5
1d7
100
AcDbEntity
  8
Calque_1
 62
7
100
AcDbSpline
 70
8
 71
3
 72
8
 73
4
 74
0
 40
0
 40
0
 40
0
 40
0
 40
1
 40
1
 40
1
 40
1
 10
84.214060
 20
123.877241
 30
0.0
 10
84.225534
 20
124.198703
 30
0.0
 10
84.231271
 20
124.660229
 30
0.0
 10
84.231271
 20
125.261820
 30
0.0
  0
SPLINE
  5
1d8
100
AcDbEntity
  8
Calque_1
 62
7
100
AcDbSpline
 70
8
 71
3
 72
8
 73
4
 74
0
 40
0
 40
0
 40
0
 40
0
 40
1
 40
1
 40
1
 40
1
 10
84.231271
 20
125.261820
 30
0.0
 10
84.231271
 20
125.847338
 30
0.0
 10
84.206013
 20
126.275570
 30
0.0
 10
84.155496
 20
126.546517
 30
0.0
  0
SPLINE
  5
1d9
100
AcDbEntity
  8
Calque_1
 62
7
100
AcDbSpline
 70
8
 71
3
 72
8
 73
4
 74
0
 40
0
 40
0
 40
0
 40
0
 40
1
 40
1
 40
1
 40
1
 10
84.155496
 20
126.546517
 30
0.0
 10
84.107277
 20
126.817462
 30
0.0
 10
83.977545
 20
127.018375
 30
0.0
 10
83.766301
 20
127.149255
 30
0.0
  0
SPLINE
  5
1da
100
AcDbEntity
  8
Calque_1
 62
7
100
AcDbSpline
 70
8
 71
3
 72
8
 73
4
 74
0
 40
0
 40
0
 40
0
 40
0
 40
1
 40
1
 40
1
 40
1
 10
83.766301
 20
127.149255
 30
0.0
 10
83.557351
 20
127.282433
 30
0.0
 10
83.212928
 20
127.349022
 30
0.0
 10
82.733032
 20
127.349022
 30
0.0
  0
LWPOLYLINE
  5
1db
100
AcDbEntity
  8
Calque_1
 62
7
100
AcDbPolyline
 90
2
 70
0
 10
82.099303
 20
122.578768
 30
0.0
 10
82.536722
 20
122.578768
 30
0.0
  0
SPLINE
  5
1dc
100
AcDbEntity
  8
Calque_1
 62
7
100
AcDbSpline
 70
8
 71
3
 72
8
 73
4
 74
0
 40
0
 40
0
 40
0
 40
0
 40
1
 40
1
 40
1
 40
1
 10
82.536711
 20
127.349022
 30
0.0
 10
81.994819
 20
127.349022
 30
0.0
 10
81.602178
 20
127.298506
 30
0.0
 10
81.358787
 20
127.197475
 30
0.0
  0
SPLINE
  5
1dd
100
AcDbEntity
  8
Calque_1
 62
7
100
AcDbSpline
 70
8
 71
3
 72
8
 73
4
 74
0
 40
0
 40
0
 40
0
 40
0
 40
1
 40
1
 40
1
 40
1
 10
81.358787
 20
127.197475
 30
0.0
 10
81.117689
 20
127.096444
 30
0.0
 10
80.956958
 20
126.910456
 30
0.0
 10
80.876594
 20
126.639511
 30
0.0
  0
SPLINE
  5
1de
100
AcDbEntity
  8
Calque_1
 62
7
100
AcDbSpline
 70
8
 71
3
 72
8
 73
4
 74
0
 40
0
 40
0
 40
0
 40
0
 40
1
 40
1
 40
1
 40
1
 10
80.876594
 20
126.639511
 30
0.0
 10
80.798526
 20
126.368566
 30
0.0
 10
80.759491
 20
125.932297
 30
0.0
 10
80.759491
 20
125.330704
 30
0.0
  0
LWPOLYLINE
  5
1df
100
AcDbEntity
  8
Calque_1
 62
7
100
AcDbPolyline
 90
2
 70
0
 10
82.733032
 20
127.349022
 30
0.0
 10
82.536711
 20
127.349022
 30
0.0
  0
LWPOLYLINE
  5
1e0
100
AcDbEntity
  8
Calque_1
 62
7
100
AcDbPolyline
 90
2
 70
0
 10
80.759491
 20
125.330704
 30
0.0
 10
80.759502
 20
125.134383
 30
0.0
  0
SPLINE
  5
1e1
100
AcDbEntity
  8
Calque_1
 62
7
100
AcDbSpline
 70
8
 71
3
 72
8
 73
4
 74
0
 40
0
 40
0
 40
0
 40
0
 40
1
 40
1
 40
1
 40
1
 10
86.514804
 20
127.194033
 30
0.0
 10
86.744419
 20
127.547638
 30
0.0
 10
87.030290
 20
127.791030
 30
0.0
 10
87.372417
 20
127.924208
 30
0.0
  0
SPLINE
  5
1e2
100
AcDbEntity
  8
Calque_1
 62
7
100
AcDbSpline
 70
8
 71
3
 72
8
 73
4
 74
0
 40
0
 40
0
 40
0
 40
0
 40
1
 40
1
 40
1
 40
1
 10
87.372417
 20
127.924208
 30
0.0
 10
87.714541
 20
128.057383
 30
0.0
 10
88.119811
 20
128.123971
 30
0.0
 10
88.588227
 20
128.123971
 30
0.0
  0
SPLINE
  5
1e3
100
AcDbEntity
  8
Calque_1
 62
7
100
AcDbSpline
 70
8
 71
3
 72
8
 73
4
 74
0
 40
0
 40
0
 40
0
 40
0
 40
1
 40
1
 40
1
 40
1
 10
88.588227
 20
128.123971
 30
0.0
 10
89.139303
 20
128.123971
 30
0.0
 10
89.572127
 20
128.056234
 30
0.0
 10
89.886700
 20
127.920762
 30
0.0
  0
SPLINE
  5
1e4
100
AcDbEntity
  8
Calque_1
 62
7
100
AcDbSpline
 70
8
 71
3
 72
8
 73
4
 74
0
 40
0
 40
0
 40
0
 40
0
 40
1
 40
1
 40
1
 40
1
 10
89.886700
 20
127.920762
 30
0.0
 10
90.203569
 20
127.785290
 30
0.0
 10
90.433185
 20
127.557971
 30
0.0
 10
90.575547
 20
127.238807
 30
0.0
  0
SPLINE
  5
1e5
100
AcDbEntity
  8
Calque_1
 62
7
100
AcDbSpline
 70
8
 71
3
 72
8
 73
4
 74
0
 40
0
 40
0
 40
0
 40
0
 40
1
 40
1
 40
1
 40
1
 10
90.575547
 20
127.238807
 30
0.0
 10
90.717908
 20
126.919642
 30
0.0
 10
90.789089
 20
126.485669
 30
0.0
 10
90.789089
 20
125.936888
 30
0.0
  0
LWPOLYLINE
  5
1e6
100
AcDbEntity
  8
Calque_1
 62
7
100
AcDbPolyline
 90
3
 70
0
 10
85.698520
 20
127.982758
 30
0.0
 10
86.514804
 20
127.982758
 30
0.0
 10
86.514804
 20
127.194033
 30
0.0
  0
SPLINE
  5
1e7
100
AcDbEntity
  8
Calque_1
 62
7
100
AcDbSpline
 70
8
 71
3
 72
8
 73
4
 74
0
 40
0
 40
0
 40
0
 40
0
 40
1
 40
1
 40
1
 40
1
 10
89.872924
 20
125.868004
 30
0.0
 10
89.872924
 20
126.276719
 30
0.0
 10
89.835037
 20
126.586699
 30
0.0
 10
89.759263
 20
126.797946
 30
0.0
  0
SPLINE
  5
1e8
100
AcDbEntity
  8
Calque_1
 62
7
100
AcDbSpline
 70
8
 71
3
 72
8
 73
4
 74
0
 40
0
 40
0
 40
0
 40
0
 40
1
 40
1
 40
1
 40
1
 10
89.759263
 20
126.797946
 30
0.0
 10
89.683491
 20
127.009192
 30
0.0
 10
89.541131
 20
127.158442
 30
0.0
 10
89.332181
 20
127.245695
 30
0.0
  0
SPLINE
  5
1e9
100
AcDbEntity
  8
Calque_1
 62
7
100
AcDbSpline
 70
8
 71
3
 72
8
 73
4
 74
0
 40
0
 40
0
 40
0
 40
0
 40
1
 40
1
 40
1
 40
1
 10
89.332181
 20
127.245695
 30
0.0
 10
89.125527
 20
127.332947
 30
0.0
 10
88.812102
 20
127.376574
 30
0.0
 10
88.391906
 20
127.376574
 30
0.0
  0
SPLINE
  5
1ea
100
AcDbEntity
  8
Calque_1
 62
7
100
AcDbSpline
 70
8
 71
3
 72
8
 73
4
 74
0
 40
0
 40
0
 40
0
 40
0
 40
1
 40
1
 40
1
 40
1
 10
88.391906
 20
127.376574
 30
0.0
 10
87.197909
 20
127.376574
 30
0.0
 10
86.600910
 20
126.797944
 30
0.0
 10
86.600910
 20
125.640685
 30
0.0
  0
LWPOLYLINE
  5
1eb
100
AcDbEntity
  8
Calque_1
 62
7
100
AcDbPolyline
 90
4
 70
0
 10
90.789089
 20
125.936888
 30
0.0
 10
90.789089
 20
121.931253
 30
0.0
 10
89.872924
 20
121.931253
 30
0.0
 10
89.872924
 20
125.868004
 30
0.0
  0
LWPOLYLINE
  5
1ec
100
AcDbEntity
  8
Calque_1
 62
7
100
AcDbPolyline
 90
4
 70
0
 10
86.600910
 20
125.640685
 30
0.0
 10
86.600910
 20
121.931253
 30
0.0
 10
85.698520
 20
121.931253
 30
0.0
 10
85.698520
 20
127.982758
 30
0.0
  0
SPLINE
  5
1ed
100
AcDbEntity
  8
Calque_1
 62
7
100
AcDbSpline
 70
8
 71
3
 72
8
 73
4
 74
0
 40
0
 40
0
 40
0
 40
0
 40
1
 40
1
 40
1
 40
1
 10
96.530612
 20
124.145892
 30
0.0
 10
96.530612
 20
123.525931
 30
0.0
 10
96.445655
 20
123.054072
 30
0.0
 10
96.275742
 20
122.730315
 30
0.0
  0
SPLINE
  5
1ee
100
AcDbEntity
  8
Calque_1
 62
7
100
AcDbSpline
 70
8
 71
3
 72
8
 73
4
 74
0
 40
0
 40
0
 40
0
 40
0
 40
1
 40
1
 40
1
 40
1
 10
96.275742
 20
122.730315
 30
0.0
 10
96.108123
 20
122.408853
 30
0.0
 10
95.844065
 20
122.188423
 30
0.0
 10
95.483567
 20
122.069024
 30
0.0
  0
SPLINE
  5
1ef
100
AcDbEntity
  8
Calque_1
 62
7
100
AcDbSpline
 70
8
 71
3
 72
8
 73
4
 74
0
 40
0
 40
0
 40
0
 40
0
 40
1
 40
1
 40
1
 40
1
 10
95.483567
 20
122.069024
 30
0.0
 10
95.123073
 20
121.949622
 30
0.0
 10
94.621364
 20
121.889921
 30
0.0
 10
93.978443
 20
121.889921
 30
0.0
  0
SPLINE
  5
1f0
100
AcDbEntity
  8
Calque_1
 62
7
100
AcDbSpline
 70
8
 71
3
 72
8
 73
4
 74
0
 40
0
 40
0
 40
0
 40
0
 40
1
 40
1
 40
1
 40
1
 10
93.978443
 20
121.889921
 30
0.0
 10
93.349296
 20
121.889921
 30
0.0
 10
92.854475
 20
121.951918
 30
0.0
 10
92.493980
 20
122.075912
 30
0.0
  0
SPLINE
  5
1f1
100
AcDbEntity
  8
Calque_1
 62
7
100
AcDbSpline
 70
8
 71
3
 72
8
 73
4
 74
0
 40
0
 40
0
 40
0
 40
0
 40
1
 40
1
 40
1
 40
1
 10
92.493980
 20
122.075912
 30
0.0
 10
92.133485
 20
122.202200
 30
0.0
 10
91.868279
 20
122.395076
 30
0.0
 10
91.698363
 20
122.654540
 30
0.0
  0
SPLINE
  5
1f2
100
AcDbEntity
  8
Calque_1
 62
7
100
AcDbSpline
 70
8
 71
3
 72
8
 73
4
 74
0
 40
0
 40
0
 40
0
 40
0
 40
1
 40
1
 40
1
 40
1
 10
91.698363
 20
122.654540
 30
0.0
 10
91.530744
 20
122.916301
 30
0.0
 10
91.423974
 20
123.232022
 30
0.0
 10
91.378051
 20
123.601703
 30
0.0
  0
SPLINE
  5
1f3
100
AcDbEntity
  8
Calque_1
 62
7
100
AcDbSpline
 70
8
 71
3
 72
8
 73
4
 74
0
 40
0
 40
0
 40
0
 40
0
 40
1
 40
1
 40
1
 40
1
 10
91.378051
 20
123.601703
 30
0.0
 10
91.334424
 20
123.971382
 30
0.0
 10
91.312610
 20
124.491461
 30
0.0
 10
91.312610
 20
125.161939
 30
0.0
  0
SPLINE
  5
1f4
100
AcDbEntity
  8
Calque_1
 62
7
100
AcDbSpline
 70
8
 71
3
 72
8
 73
4
 74
0
 40
0
 40
0
 40
0
 40
0
 40
1
 40
1
 40
1
 40
1
 10
91.312610
 20
125.161939
 30
0.0
 10
91.312610
 20
125.873745
 30
0.0
 10
91.387235
 20
126.435153
 30
0.0
 10
91.536486
 20
126.846165
 30
0.0
  0
SPLINE
  5
1f5
100
AcDbEntity
  8
Calque_1
 62
7
100
AcDbSpline
 70
8
 71
3
 72
8
 73
4
 74
0
 40
0
 40
0
 40
0
 40
0
 40
1
 40
1
 40
1
 40
1
 10
91.536486
 20
126.846165
 30
0.0
 10
91.685735
 20
127.259472
 30
0.0
 10
91.953236
 20
127.563712
 30
0.0
 10
92.338991
 20
127.758885
 30
0.0
  0
SPLINE
  5
1f6
100
AcDbEntity
  8
Calque_1
 62
7
100
AcDbSpline
 70
8
 71
3
 72
8
 73
4
 74
0
 40
0
 40
0
 40
0
 40
0
 40
1
 40
1
 40
1
 40
1
 10
92.338991
 20
127.758885
 30
0.0
 10
92.727040
 20
127.956353
 30
0.0
 10
93.273524
 20
128.055087
 30
0.0
 10
93.978443
 20
128.055087
 30
0.0
  0
SPLINE
  5
1f7
100
AcDbEntity
  8
Calque_1
 62
7
100
AcDbSpline
 70
8
 71
3
 72
8
 73
4
 74
0
 40
0
 40
0
 40
0
 40
0
 40
1
 40
1
 40
1
 40
1
 10
93.978443
 20
128.055087
 30
0.0
 10
94.754542
 20
128.055087
 30
0.0
 10
95.352689
 20
127.929947
 30
0.0
 10
95.772885
 20
127.679667
 30
0.0
  0
SPLINE
  5
1f8
100
AcDbEntity
  8
Calque_1
 62
7
100
AcDbSpline
 70
8
 71
3
 72
8
 73
4
 74
0
 40
0
 40
0
 40
0
 40
0
 40
1
 40
1
 40
1
 40
1
 10
95.772885
 20
127.679667
 30
0.0
 10
96.195376
 20
127.431683
 30
0.0
 10
96.406621
 20
126.940306
 30
0.0
 10
96.406621
 20
126.205538
 30
0.0
  0
LWPOLYLINE
  5
1f9
100
AcDbEntity
  8
Calque_1
 62
7
100
AcDbPolyline
 90
2
 70
0
 10
95.628226
 20
124.145892
 30
0.0
 10
96.530612
 20
124.145892
 30
0.0
  0
SPLINE
  5
1fa
100
AcDbEntity
  8
Calque_1
 62
7
100
AcDbSpline
 70
8
 71
3
 72
8
 73
4
 74
0
 40
0
 40
0
 40
0
 40
0
 40
1
 40
1
 40
1
 40
1
 10
95.531787
 20
126.009217
 30
0.0
 10
95.531787
 20
126.374306
 30
0.0
 10
95.483569
 20
126.649844
 30
0.0
 10
95.387132
 20
126.835831
 30
0.0
  0
SPLINE
  5
1fb
100
AcDbEntity
  8
Calque_1
 62
7
100
AcDbSpline
 70
8
 71
3
 72
8
 73
4
 74
0
 40
0
 40
0
 40
0
 40
0
 40
1
 40
1
 40
1
 40
1
 10
95.387132
 20
126.835831
 30
0.0
 10
95.292990
 20
127.021821
 30
0.0
 10
95.142591
 20
127.149258
 30
0.0
 10
94.935937
 20
127.218142
 30
0.0
  0
SPLINE
  5
1fc
100
AcDbEntity
  8
Calque_1
 62
7
100
AcDbSpline
 70
8
 71
3
 72
8
 73
4
 74
0
 40
0
 40
0
 40
0
 40
0
 40
1
 40
1
 40
1
 40
1
 10
94.935937
 20
127.218142
 30
0.0
 10
94.731580
 20
127.287025
 30
0.0
 10
94.445709
 20
127.321466
 30
0.0
 10
94.078325
 20
127.321466
 30
0.0
  0
SPLINE
  5
1fd
100
AcDbEntity
  8
Calque_1
 62
7
100
AcDbSpline
 70
8
 71
3
 72
8
 73
4
 74
0
 40
0
 40
0
 40
0
 40
0
 40
1
 40
1
 40
1
 40
1
 10
94.078325
 20
127.321466
 30
0.0
 10
93.529543
 20
127.321466
 30
0.0
 10
93.130013
 20
127.268656
 30
0.0
 10
92.879733
 20
127.163035
 30
0.0
  0
SPLINE
  5
1fe
100
AcDbEntity
  8
Calque_1
 62
7
100
AcDbSpline
 70
8
 71
3
 72
8
 73
4
 74
0
 40
0
 40
0
 40
0
 40
0
 40
1
 40
1
 40
1
 40
1
 10
92.879733
 20
127.163035
 30
0.0
 10
92.629453
 20
127.057412
 30
0.0
 10
92.462983
 20
126.864534
 30
0.0
 10
92.380322
 20
126.584403
 30
0.0
  0
SPLINE
  5
1ff
100
AcDbEntity
  8
Calque_1
 62
7
100
AcDbSpline
 70
8
 71
3
 72
8
 73
4
 74
0
 40
0
 40
0
 40
0
 40
0
 40
1
 40
1
 40
1
 40
1
 10
92.380322
 20
126.584403
 30
0.0
 10
92.297659
 20
126.306569
 30
0.0
 10
92.256327
 20
125.865708
 30
0.0
 10
92.256327
 20
125.261820
 30
0.0
  0
LWPOLYLINE
  5
200
100
AcDbEntity
  8
Calque_1
 62
7
100
AcDbPolyline
 90
3
 70
0
 10
96.406621
 20
126.205538
 30
0.0
 10
96.406621
 20
126.009217
 30
0.0
 10
95.531787
 20
126.009217
 30
0.0
  0
SPLINE
  5
201
100
AcDbEntity
  8
Calque_1
 62
7
100
AcDbSpline
 70
8
 71
3
 72
8
 73
4
 74
0
 40
0
 40
0
 40
0
 40
0
 40
1
 40
1
 40
1
 40
1
 10
92.256327
 20
124.655636
 30
0.0
 10
92.256327
 20
124.120633
 30
0.0
 10
92.286178
 20
123.717659
 30
0.0
 10
92.345879
 20
123.446714
 30
0.0
  0
SPLINE
  5
202
100
AcDbEntity
  8
Calque_1
 62
7
100
AcDbSpline
 70
8
 71
3
 72
8
 73
4
 74
0
 40
0
 40
0
 40
0
 40
0
 40
1
 40
1
 40
1
 40
1
 10
92.345879
 20
123.446714
 30
0.0
 10
92.407874
 20
123.175767
 30
0.0
 10
92.557124
 20
122.967965
 30
0.0
 10
92.793628
 20
122.823309
 30
0.0
  0
SPLINE
  5
203
100
AcDbEntity
  8
Calque_1
 62
7
100
AcDbSpline
 70
8
 71
3
 72
8
 73
4
 74
0
 40
0
 40
0
 40
0
 40
0
 40
1
 40
1
 40
1
 40
1
 10
92.793628
 20
122.823309
 30
0.0
 10
93.030131
 20
122.680947
 30
0.0
 10
93.402108
 20
122.609766
 30
0.0
 10
93.909556
 20
122.609766
 30
0.0
  0
SPLINE
  5
204
100
AcDbEntity
  8
Calque_1
 62
7
100
AcDbSpline
 70
8
 71
3
 72
8
 73
4
 74
0
 40
0
 40
0
 40
0
 40
0
 40
1
 40
1
 40
1
 40
1
 10
93.909556
 20
122.609766
 30
0.0
 10
94.394045
 20
122.609766
 30
0.0
 10
94.751096
 20
122.640764
 30
0.0
 10
94.980711
 20
122.702760
 30
0.0
  0
SPLINE
  5
205
100
AcDbEntity
  8
Calque_1
 62
7
100
AcDbSpline
 70
8
 71
3
 72
8
 73
4
 74
0
 40
0
 40
0
 40
0
 40
0
 40
1
 40
1
 40
1
 40
1
 10
94.980711
 20
122.702760
 30
0.0
 10
95.210325
 20
122.767052
 30
0.0
 10
95.375648
 20
122.907118
 30
0.0
 10
95.476679
 20
123.122957
 30
0.0
  0
SPLINE
  5
206
100
AcDbEntity
  8
Calque_1
 62
7
100
AcDbSpline
 70
8
 71
3
 72
8
 73
4
 74
0
 40
0
 40
0
 40
0
 40
0
 40
1
 40
1
 40
1
 40
1
 10
95.476679
 20
123.122957
 30
0.0
 10
95.577711
 20
123.341090
 30
0.0
 10
95.628226
 20
123.682068
 30
0.0
 10
95.628226
 20
124.145892
 30
0.0
  0
LWPOLYLINE
  5
207
100
AcDbEntity
  8
Calque_1
 62
7
100
AcDbPolyline
 90
2
 70
0
 10
92.256327
 20
125.261820
 30
0.0
 10
92.256327
 20
124.655636
 30
0.0
  0
LWPOLYLINE
  5
208
100
AcDbEntity
  8
Calque_1
 62
7
100
AcDbPolyline
 90
1
 70
1
 10
95.628226
 20
124.145892
 30
0.0
  0
SPLINE
  5
209
100
AcDbEntity
  8
Calque_1
 62
7
100
AcDbSpline
 70
8
 71
3
 72
8
 73
4
 74
0
 40
0
 40
0
 40
0
 40
0
 40
1
 40
1
 40
1
 40
1
 10
97.829075
 20
127.290468
 30
0.0
 10
98.173499
 20
127.846137
 30
0.0
 10
98.723428
 20
128.123971
 30
0.0
 10
99.478861
 20
128.123971
 30
0.0
  0
SPLINE
  5
20a
100
AcDbEntity
  8
Calque_1
 62
7
100
AcDbSpline
 70
8
 71
3
 72
8
 73
4
 74
0
 40
0
 40
0
 40
0
 40
0
 40
1
 40
1
 40
1
 40
1
 10
99.478861
 20
128.123971
 30
0.0
 10
100.645307
 20
128.123971
 30
0.0
 10
101.228529
 20
127.409869
 30
0.0
 10
101.228529
 20
125.981665
 30
0.0
  0
LWPOLYLINE
  5
20b
100
AcDbEntity
  8
Calque_1
 62
7
100
AcDbPolyline
 90
3
 70
0
 10
96.968031
 20
127.982758
 30
0.0
 10
97.842865
 20
127.982758
 30
0.0
 10
97.829075
 20
127.290468
 30
0.0
  0
SPLINE
  5
20c
100
AcDbEntity
  8
Calque_1
 62
7
100
AcDbSpline
 70
8
 71
3
 72
8
 73
4
 74
0
 40
0
 40
0
 40
0
 40
0
 40
1
 40
1
 40
1
 40
1
 10
100.353695
 20
125.981665
 30
0.0
 10
100.353695
 20
126.447783
 30
0.0
 10
100.283662
 20
126.796798
 30
0.0
 10
100.143595
 20
127.028710
 30
0.0
  0
SPLINE
  5
20d
100
AcDbEntity
  8
Calque_1
 62
7
100
AcDbSpline
 70
8
 71
3
 72
8
 73
4
 74
0
 40
0
 40
0
 40
0
 40
0
 40
1
 40
1
 40
1
 40
1
 10
100.143595
 20
127.028710
 30
0.0
 10
100.003531
 20
127.260619
 30
0.0
 10
99.716512
 20
127.376574
 30
0.0
 10
99.282541
 20
127.376574
 30
0.0
  0
SPLINE
  5
20e
100
AcDbEntity
  8
Calque_1
 62
7
100
AcDbSpline
 70
8
 71
3
 72
8
 73
4
 74
0
 40
0
 40
0
 40
0
 40
0
 40
1
 40
1
 40
1
 40
1
 10
99.282541
 20
127.376574
 30
0.0
 10
98.341118
 20
127.376574
 30
0.0
 10
97.870406
 20
126.905864
 30
0.0
 10
97.870406
 20
125.964443
 30
0.0
  0
LWPOLYLINE
  5
20f
100
AcDbEntity
  8
Calque_1
 62
7
100
AcDbPolyline
 90
2
 70
0
 10
101.228529
 20
125.981665
 30
0.0
 10
100.353695
 20
125.981665
 30
0.0
  0
LWPOLYLINE
  5
210
100
AcDbEntity
  8
Calque_1
 62
7
100
AcDbPolyline
 90
4
 70
0
 10
97.870406
 20
125.964443
 30
0.0
 10
97.870406
 20
121.931253
 30
0.0
 10
96.968020
 20
121.931253
 30
0.0
 10
96.968031
 20
127.982758
 30
0.0
  0
SPLINE
  5
211
100
AcDbEntity
  8
Calque_1
 62
7
100
AcDbSpline
 70
8
 71
3
 72
8
 73
4
 74
0
 40
0
 40
0
 40
0
 40
0
 40
1
 40
1
 40
1
 40
1
 10
106.956287
 20
123.780802
 30
0.0
 10
106.956287
 20
123.213653
 30
0.0
 10
106.852960
 20
122.791161
 30
0.0
 10
106.646305
 20
122.513327
 30
0.0
  0
SPLINE
  5
212
100
AcDbEntity
  8
Calque_1
 62
7
100
AcDbSpline
 70
8
 71
3
 72
8
 73
4
 74
0
 40
0
 40
0
 40
0
 40
0
 40
1
 40
1
 40
1
 40
1
 10
106.646305
 20
122.513327
 30
0.0
 10
106.441948
 20
122.237790
 30
0.0
 10
106.162966
 20
122.059838
 30
0.0
 10
105.809361
 20
121.979472
 30
0.0
  0
SPLINE
  5
213
100
AcDbEntity
  8
Calque_1
 62
7
100
AcDbSpline
 70
8
 71
3
 72
8
 73
4
 74
0
 40
0
 40
0
 40
0
 40
0
 40
1
 40
1
 40
1
 40
1
 10
105.809361
 20
121.979472
 30
0.0
 10
105.455752
 20
121.901404
 30
0.0
 10
104.977004
 20
121.862369
 30
0.0
 10
104.373117
 20
121.862369
 30
0.0
  0
SPLINE
  5
214
100
AcDbEntity
  8
Calque_1
 62
7
100
AcDbSpline
 70
8
 71
3
 72
8
 73
4
 74
0
 40
0
 40
0
 40
0
 40
0
 40
1
 40
1
 40
1
 40
1
 10
104.373117
 20
121.862369
 30
0.0
 10
103.805967
 20
121.862369
 30
0.0
 10
103.345590
 20
121.912885
 30
0.0
 10
102.991984
 20
122.013916
 30
0.0
  0
SPLINE
  5
215
100
AcDbEntity
  8
Calque_1
 62
7
100
AcDbSpline
 70
8
 71
3
 72
8
 73
4
 74
0
 40
0
 40
0
 40
0
 40
0
 40
1
 40
1
 40
1
 40
1
 10
102.991984
 20
122.013916
 30
0.0
 10
102.640673
 20
122.114945
 30
0.0
 10
102.368578
 20
122.277971
 30
0.0
 10
102.175700
 20
122.502993
 30
0.0
  0
SPLINE
  5
216
100
AcDbEntity
  8
Calque_1
 62
7
100
AcDbSpline
 70
8
 71
3
 72
8
 73
4
 74
0
 40
0
 40
0
 40
0
 40
0
 40
1
 40
1
 40
1
 40
1
 10
102.175700
 20
122.502993
 30
0.0
 10
101.985121
 20
122.730313
 30
0.0
 10
101.851944
 20
123.027665
 30
0.0
 10
101.776170
 20
123.395049
 30
0.0
  0
SPLINE
  5
217
100
AcDbEntity
  8
Calque_1
 62
7
100
AcDbSpline
 70
8
 71
3
 72
8
 73
4
 74
0
 40
0
 40
0
 40
0
 40
0
 40
1
 40
1
 40
1
 40
1
 10
101.776170
 20
123.395049
 30
0.0
 10
101.702693
 20
123.764730
 30
0.0
 10
101.665955
 20
124.241182
 30
0.0
 10
101.665955
 20
124.824405
 30
0.0
  0
SPLINE
  5
218
100
AcDbEntity
  8
Calque_1
 62
7
100
AcDbSpline
 70
8
 71
3
 72
8
 73
4
 74
0
 40
0
 40
0
 40
0
 40
0
 40
1
 40
1
 40
1
 40
1
 10
101.665955
 20
124.824405
 30
0.0
 10
101.665955
 20
125.623464
 30
0.0
 10
101.718767
 20
126.243424
 30
0.0
 10
101.824390
 20
126.684285
 30
0.0
  0
SPLINE
  5
219
100
AcDbEntity
  8
Calque_1
 62
7
100
AcDbSpline
 70
8
 71
3
 72
8
 73
4
 74
0
 40
0
 40
0
 40
0
 40
0
 40
1
 40
1
 40
1
 40
1
 10
101.824390
 20
126.684285
 30
0.0
 10
101.930013
 20
127.127443
 30
0.0
 10
102.166517
 20
127.468421
 30
0.0
 10
102.533901
 20
127.707220
 30
0.0
  0
SPLINE
  5
21a
100
AcDbEntity
  8
Calque_1
 62
7
100
AcDbSpline
 70
8
 71
3
 72
8
 73
4
 74
0
 40
0
 40
0
 40
0
 40
0
 40
1
 40
1
 40
1
 40
1
 10
102.533901
 20
127.707220
 30
0.0
 10
102.903580
 20
127.948315
 30
0.0
 10
103.469581
 20
128.068863
 30
0.0
 10
104.231904
 20
128.068863
 30
0.0
  0
SPLINE
  5
21b
100
AcDbEntity
  8
Calque_1
 62
7
100
AcDbSpline
 70
8
 71
3
 72
8
 73
4
 74
0
 40
0
 40
0
 40
0
 40
0
 40
1
 40
1
 40
1
 40
1
 10
104.231904
 20
128.068863
 30
0.0
 10
104.991929
 20
128.068863
 30
0.0
 10
105.562523
 20
127.989647
 30
0.0
 10
105.943686
 20
127.831214
 30
0.0
  0
SPLINE
  5
21c
100
AcDbEntity
  8
Calque_1
 62
7
100
AcDbSpline
 70
8
 71
3
 72
8
 73
4
 74
0
 40
0
 40
0
 40
0
 40
0
 40
1
 40
1
 40
1
 40
1
 10
105.943686
 20
127.831214
 30
0.0
 10
106.324846
 20
127.675074
 30
0.0
 10
106.585458
 20
127.402980
 30
0.0
 10
106.725523
 20
127.014930
 30
0.0
  0
SPLINE
  5
21d
100
AcDbEntity
  8
Calque_1
 62
7
100
AcDbSpline
 70
8
 71
3
 72
8
 73
4
 74
0
 40
0
 40
0
 40
0
 40
0
 40
1
 40
1
 40
1
 40
1
 10
106.725523
 20
127.014930
 30
0.0
 10
106.867884
 20
126.629178
 30
0.0
 10
106.944806
 20
126.044808
 30
0.0
 10
106.956287
 20
125.261820
 30
0.0
  0
LWPOLYLINE
  5
21e
100
AcDbEntity
  8
Calque_1
 62
7
100
AcDbPolyline
 90
2
 70
0
 10
106.009124
 20
123.780802
 30
0.0
 10
106.956287
 20
123.780802
 30
0.0
  0
SPLINE
  5
21f
100
AcDbEntity
  8
Calque_1
 62
7
100
AcDbSpline
 70
8
 71
3
 72
8
 73
4
 74
0
 40
0
 40
0
 40
0
 40
0
 40
1
 40
1
 40
1
 40
1
 10
102.609673
 20
124.793407
 30
0.0
 10
102.609673
 20
124.235442
 30
0.0
 10
102.634931
 20
123.812950
 30
0.0
 10
102.685448
 20
123.525932
 30
0.0
  0
SPLINE
  5
220
100
AcDbEntity
  8
Calque_1
 62
7
100
AcDbSpline
 70
8
 71
3
 72
8
 73
4
 74
0
 40
0
 40
0
 40
0
 40
0
 40
1
 40
1
 40
1
 40
1
 10
102.685448
 20
123.525932
 30
0.0
 10
102.738257
 20
123.238911
 30
0.0
 10
102.880618
 20
123.009296
 30
0.0
 10
103.112529
 20
122.837085
 30
0.0
  0
SPLINE
  5
221
100
AcDbEntity
  8
Calque_1
 62
7
100
AcDbSpline
 70
8
 71
3
 72
8
 73
4
 74
0
 40
0
 40
0
 40
0
 40
0
 40
1
 40
1
 40
1
 40
1
 10
103.112529
 20
122.837085
 30
0.0
 10
103.346738
 20
122.664874
 30
0.0
 10
103.719863
 20
122.578768
 30
0.0
 10
104.231904
 20
122.578768
 30
0.0
  0
LWPOLYLINE
  5
222
100
AcDbEntity
  8
Calque_1
 62
7
100
AcDbPolyline
 90
3
 70
0
 10
106.956287
 20
125.261820
 30
0.0
 10
106.956287
 20
124.793407
 30
0.0
 10
102.609673
 20
124.793407
 30
0.0
  0
SPLINE
  5
223
100
AcDbEntity
  8
Calque_1
 62
7
100
AcDbSpline
 70
8
 71
3
 72
8
 73
4
 74
0
 40
0
 40
0
 40
0
 40
0
 40
1
 40
1
 40
1
 40
1
 10
104.472998
 20
122.578768
 30
0.0
 10
104.978152
 20
122.578768
 30
0.0
 10
105.360462
 20
122.638468
 30
0.0
 10
105.619928
 20
122.757867
 30
0.0
  0
SPLINE
  5
224
100
AcDbEntity
  8
Calque_1
 62
7
100
AcDbSpline
 70
8
 71
3
 72
8
 73
4
 74
0
 40
0
 40
0
 40
0
 40
0
 40
1
 40
1
 40
1
 40
1
 10
105.619928
 20
122.757867
 30
0.0
 10
105.879392
 20
122.879564
 30
0.0
 10
106.009124
 20
123.153954
 30
0.0
 10
106.009124
 20
123.581039
 30
0.0
  0
LWPOLYLINE
  5
225
100
AcDbEntity
  8
Calque_1
 62
7
100
AcDbPolyline
 90
2
 70
0
 10
104.231904
 20
122.578768
 30
0.0
 10
104.472998
 20
122.578768
 30
0.0
  0
SPLINE
  5
226
100
AcDbEntity
  8
Calque_1
 62
7
100
AcDbSpline
 70
8
 71
3
 72
8
 73
4
 74
0
 40
0
 40
0
 40
0
 40
0
 40
1
 40
1
 40
1
 40
1
 10
106.026335
 20
125.499472
 30
0.0
 10
106.026335
 20
126.043659
 30
0.0
 10
105.990745
 20
126.442041
 30
0.0
 10
105.919565
 20
126.694618
 30
0.0
  0
SPLINE
  5
227
100
AcDbEntity
  8
Calque_1
 62
7
100
AcDbSpline
 70
8
 71
3
 72
8
 73
4
 74
0
 40
0
 40
0
 40
0
 40
0
 40
1
 40
1
 40
1
 40
1
 10
105.919565
 20
126.694618
 30
0.0
 10
105.850680
 20
126.947195
 30
0.0
 10
105.695690
 20
127.123999
 30
0.0
 10
105.454594
 20
127.225030
 30
0.0
  0
SPLINE
  5
228
100
AcDbEntity
  8
Calque_1
 62
7
100
AcDbSpline
 70
8
 71
3
 72
8
 73
4
 74
0
 40
0
 40
0
 40
0
 40
0
 40
1
 40
1
 40
1
 40
1
 10
105.454594
 20
127.225030
 30
0.0
 10
105.215794
 20
127.326059
 30
0.0
 10
104.832336
 20
127.376574
 30
0.0
 10
104.304222
 20
127.376574
 30
0.0
  0
SPLINE
  5
229
100
AcDbEntity
  8
Calque_1
 62
7
100
AcDbSpline
 70
8
 71
3
 72
8
 73
4
 74
0
 40
0
 40
0
 40
0
 40
0
 40
1
 40
1
 40
1
 40
1
 10
104.304222
 20
127.376574
 30
0.0
 10
103.840399
 20
127.376574
 30
0.0
 10
103.487939
 20
127.320319
 30
0.0
 10
103.246844
 20
127.207809
 30
0.0
  0
SPLINE
  5
22a
100
AcDbEntity
  8
Calque_1
 62
7
100
AcDbSpline
 70
8
 71
3
 72
8
 73
4
 74
0
 40
0
 40
0
 40
0
 40
0
 40
1
 40
1
 40
1
 40
1
 10
103.246844
 20
127.207809
 30
0.0
 10
103.005748
 20
127.097593
 30
0.0
 10
102.839278
 20
126.910457
 30
0.0
 10
102.747433
 20
126.646399
 30
0.0
  0
SPLINE
  5
22b
100
AcDbEntity
  8
Calque_1
 62
7
100
AcDbSpline
 70
8
 71
3
 72
8
 73
4
 74
0
 40
0
 40
0
 40
0
 40
0
 40
1
 40
1
 40
1
 40
1
 10
102.747433
 20
126.646399
 30
0.0
 10
102.655586
 20
126.382341
 30
0.0
 10
102.609662
 20
126.000032
 30
0.0
 10
102.609662
 20
125.499472
 30
0.0
  0
LWPOLYLINE
  5
22c
100
AcDbEntity
  8
Calque_1
 62
7
100
AcDbPolyline
 90
2
 70
0
 10
106.009124
 20
123.581039
 30
0.0
 10
106.009124
 20
123.780802
 30
0.0
  0
LWPOLYLINE
  5
22d
100
AcDbEntity
  8
Calque_1
 62
7
100
AcDbPolyline
 90
2
 70
0
 10
102.609662
 20
125.499472
 30
0.0
 10
106.026335
 20
125.499472
 30
0.0
  0
SPLINE
  5
22e
100
AcDbEntity
  8
Calque_1
 62
7
100
AcDbSpline
 70
8
 71
3
 72
8
 73
4
 74
0
 40
0
 40
0
 40
0
 40
0
 40
1
 40
1
 40
1
 40
1
 10
109.029702
 20
123.553484
 30
0.0
 10
109.029702
 20
123.188397
 30
0.0
 10
109.084810
 20
122.939264
 30
0.0
 10
109.195025
 20
122.806087
 30
0.0
  0
SPLINE
  5
22f
100
AcDbEntity
  8
Calque_1
 62
7
100
AcDbSpline
 70
8
 71
3
 72
8
 73
4
 74
0
 40
0
 40
0
 40
0
 40
0
 40
1
 40
1
 40
1
 40
1
 10
109.195025
 20
122.806087
 30
0.0
 10
109.305240
 20
122.675206
 30
0.0
 10
109.532559
 20
122.609766
 30
0.0
 10
109.876980
 20
122.609766
 30
0.0
  0
SPLINE
  5
230
100
AcDbEntity
  8
Calque_1
 62
7
100
AcDbSpline
 70
8
 71
3
 72
8
 73
4
 74
0
 40
0
 40
0
 40
0
 40
0
 40
1
 40
1
 40
1
 40
1
 10
109.876980
 20
122.609766
 30
0.0
 10
110.253549
 20
122.609766
 30
0.0
 10
110.493497
 20
122.693576
 30
0.0
 10
110.596825
 20
122.861194
 30
0.0
  0
SPLINE
  5
231
100
AcDbEntity
  8
Calque_1
 62
7
100
AcDbSpline
 70
8
 71
3
 72
8
 73
4
 74
0
 40
0
 40
0
 40
0
 40
0
 40
1
 40
1
 40
1
 40
1
 10
110.596825
 20
122.861194
 30
0.0
 10
110.700151
 20
123.028813
 30
0.0
 10
110.751814
 20
123.302055
 30
0.0
 10
110.751814
 20
123.680921
 30
0.0
  0
LWPOLYLINE
  5
232
100
AcDbEntity
  8
Calque_1
 62
7
100
AcDbPolyline
 90
4
 70
0
 10
111.357998
 20
127.982758
 30
0.0
 10
111.357998
 20
127.249140
 30
0.0
 10
109.029702
 20
127.249140
 30
0.0
 10
109.029702
 20
123.553484
 30
0.0
  0
SPLINE
  5
233
100
AcDbEntity
  8
Calque_1
 62
7
100
AcDbSpline
 70
8
 71
3
 72
8
 73
4
 74
0
 40
0
 40
0
 40
0
 40
0
 40
1
 40
1
 40
1
 40
1
 10
111.595651
 20
124.059786
 30
0.0
 10
111.595651
 20
123.325018
 30
0.0
 10
111.484287
 20
122.775089
 30
0.0
 10
111.261559
 20
122.410000
 30
0.0
  0
SPLINE
  5
234
100
AcDbEntity
  8
Calque_1
 62
7
100
AcDbSpline
 70
8
 71
3
 72
8
 73
4
 74
0
 40
0
 40
0
 40
0
 40
0
 40
1
 40
1
 40
1
 40
1
 10
111.261559
 20
122.410000
 30
0.0
 10
111.041128
 20
122.044913
 30
0.0
 10
110.579602
 20
121.862369
 30
0.0
 10
109.876980
 20
121.862369
 30
0.0
  0
SPLINE
  5
235
100
AcDbEntity
  8
Calque_1
 62
7
100
AcDbSpline
 70
8
 71
3
 72
8
 73
4
 74
0
 40
0
 40
0
 40
0
 40
0
 40
1
 40
1
 40
1
 40
1
 10
109.876980
 20
121.862369
 30
0.0
 10
109.429230
 20
121.862369
 30
0.0
 10
109.077919
 20
121.914032
 30
0.0
 10
108.823048
 20
122.017358
 30
0.0
  0
SPLINE
  5
236
100
AcDbEntity
  8
Calque_1
 62
7
100
AcDbSpline
 70
8
 71
3
 72
8
 73
4
 74
0
 40
0
 40
0
 40
0
 40
0
 40
1
 40
1
 40
1
 40
1
 10
108.823048
 20
122.017358
 30
0.0
 10
108.570471
 20
122.120684
 30
0.0
 10
108.389075
 20
122.294044
 30
0.0
 10
108.278859
 20
122.537437
 30
0.0
  0
SPLINE
  5
237
100
AcDbEntity
  8
Calque_1
 62
7
100
AcDbSpline
 70
8
 71
3
 72
8
 73
4
 74
0
 40
0
 40
0
 40
0
 40
0
 40
1
 40
1
 40
1
 40
1
 10
108.278859
 20
122.537437
 30
0.0
 10
108.168644
 20
122.780830
 30
0.0
 10
108.113536
 20
123.119512
 30
0.0
 10
108.113536
 20
123.553484
 30
0.0
  0
LWPOLYLINE
  5
238
100
AcDbEntity
  8
Calque_1
 62
7
100
AcDbPolyline
 90
3
 70
0
 10
110.751814
 20
123.680921
 30
0.0
 10
110.751814
 20
124.059786
 30
0.0
 10
111.595651
 20
124.059786
 30
0.0
  0
LWPOLYLINE
  5
239
100
AcDbEntity
  8
Calque_1
 62
7
100
AcDbPolyline
 90
9
 70
0
 10
108.113536
 20
123.553484
 30
0.0
 10
108.113536
 20
127.249140
 30
0.0
 10
107.321366
 20
127.249140
 30
0.0
 10
107.321366
 20
127.982758
 30
0.0
 10
108.113536
 20
127.982758
 30
0.0
 10
108.113536
 20
129.436223
 30
0.0
 10
109.029702
 20
129.436223
 30
0.0
 10
109.029702
 20
127.982758
 30
0.0
 10
111.357998
 20
127.982758
 30
0.0
  0
SPLINE
  5
23a
100
AcDbEntity
  8
Calque_1
 62
7
100
AcDbSpline
 70
8
 71
3
 72
8
 73
4
 74
0
 40
0
 40
0
 40
0
 40
0
 40
1
 40
1
 40
1
 40
1
 10
117.464611
 20
123.780802
 30
0.0
 10
117.464611
 20
123.213653
 30
0.0
 10
117.361285
 20
122.791161
 30
0.0
 10
117.154632
 20
122.513327
 30
0.0
  0
SPLINE
  5
23b
100
AcDbEntity
  8
Calque_1
 62
7
100
AcDbSpline
 70
8
 71
3
 72
8
 73
4
 74
0
 40
0
 40
0
 40
0
 40
0
 40
1
 40
1
 40
1
 40
1
 10
117.154632
 20
122.513327
 30
0.0
 10
116.950275
 20
122.237790
 30
0.0
 10
116.671292
 20
122.059838
 30
0.0
 10
116.317684
 20
121.979472
 30
0.0
  0
SPLINE
  5
23c
100
AcDbEntity
  8
Calque_1
 62
7
100
AcDbSpline
 70
8
 71
3
 72
8
 73
4
 74
0
 40
0
 40
0
 40
0
 40
0
 40
1
 40
1
 40
1
 40
1
 10
116.317684
 20
121.979472
 30
0.0
 10
115.964076
 20
121.901404
 30
0.0
 10
115.485328
 20
121.862369
 30
0.0
 10
114.881440
 20
121.862369
 30
0.0
  0
SPLINE
  5
23d
100
AcDbEntity
  8
Calque_1
 62
7
100
AcDbSpline
 70
8
 71
3
 72
8
 73
4
 74
0
 40
0
 40
0
 40
0
 40
0
 40
1
 40
1
 40
1
 40
1
 10
114.881440
 20
121.862369
 30
0.0
 10
114.314291
 20
121.862369
 30
0.0
 10
113.853913
 20
121.912885
 30
0.0
 10
113.500308
 20
122.013916
 30
0.0
  0
SPLINE
  5
23e
100
AcDbEntity
  8
Calque_1
 62
7
100
AcDbSpline
 70
8
 71
3
 72
8
 73
4
 74
0
 40
0
 40
0
 40
0
 40
0
 40
1
 40
1
 40
1
 40
1
 10
113.500308
 20
122.013916
 30
0.0
 10
113.148997
 20
122.114945
 30
0.0
 10
112.876902
 20
122.277971
 30
0.0
 10
112.684023
 20
122.502993
 30
0.0
  0
SPLINE
  5
23f
100
AcDbEntity
  8
Calque_1
 62
7
100
AcDbSpline
 70
8
 71
3
 72
8
 73
4
 74
0
 40
0
 40
0
 40
0
 40
0
 40
1
 40
1
 40
1
 40
1
 10
112.684023
 20
122.502993
 30
0.0
 10
112.493445
 20
122.730313
 30
0.0
 10
112.360268
 20
123.027665
 30
0.0
 10
112.284494
 20
123.395049
 30
0.0
  0
SPLINE
  5
240
100
AcDbEntity
  8
Calque_1
 62
7
100
AcDbSpline
 70
8
 71
3
 72
8
 73
4
 74
0
 40
0
 40
0
 40
0
 40
0
 40
1
 40
1
 40
1
 40
1
 10
112.284494
 20
123.395049
 30
0.0
 10
112.211017
 20
123.764730
 30
0.0
 10
112.174279
 20
124.241182
 30
0.0
 10
112.174279
 20
124.824405
 30
0.0
  0
SPLINE
  5
241
100
AcDbEntity
  8
Calque_1
 62
7
100
AcDbSpline
 70
8
 71
3
 72
8
 73
4
 74
0
 40
0
 40
0
 40
0
 40
0
 40
1
 40
1
 40
1
 40
1
 10
112.174279
 20
124.824405
 30
0.0
 10
112.174279
 20
125.623464
 30
0.0
 10
112.227090
 20
126.243424
 30
0.0
 10
112.332714
 20
126.684285
 30
0.0
  0
SPLINE
  5
242
100
AcDbEntity
  8
Calque_1
 62
7
100
AcDbSpline
 70
8
 71
3
 72
8
 73
4
 74
0
 40
0
 40
0
 40
0
 40
0
 40
1
 40
1
 40
1
 40
1
 10
112.332714
 20
126.684285
 30
0.0
 10
112.438337
 20
127.127443
 30
0.0
 10
112.674841
 20
127.468421
 30
0.0
 10
113.042225
 20
127.707220
 30
0.0
  0
SPLINE
  5
243
100
AcDbEntity
  8
Calque_1
 62
7
100
AcDbSpline
 70
8
 71
3
 72
8
 73
4
 74
0
 40
0
 40
0
 40
0
 40
0
 40
1
 40
1
 40
1
 40
1
 10
113.042225
 20
127.707220
 30
0.0
 10
113.411906
 20
127.948315
 30
0.0
 10
113.977907
 20
128.068863
 30
0.0
 10
114.740227
 20
128.068863
 30
0.0
  0
SPLINE
  5
244
100
AcDbEntity
  8
Calque_1
 62
7
100
AcDbSpline
 70
8
 71
3
 72
8
 73
4
 74
0
 40
0
 40
0
 40
0
 40
0
 40
1
 40
1
 40
1
 40
1
 10
114.740227
 20
128.068863
 30
0.0
 10
115.500253
 20
128.068863
 30
0.0
 10
116.070847
 20
127.989647
 30
0.0
 10
116.452009
 20
127.831214
 30
0.0
  0
SPLINE
  5
245
100
AcDbEntity
  8
Calque_1
 62
7
100
AcDbSpline
 70
8
 71
3
 72
8
 73
4
 74
0
 40
0
 40
0
 40
0
 40
0
 40
1
 40
1
 40
1
 40
1
 10
116.452009
 20
127.831214
 30
0.0
 10
116.833170
 20
127.675074
 30
0.0
 10
117.093783
 20
127.402980
 30
0.0
 10
117.233850
 20
127.014930
 30
0.0
  0
SPLINE
  5
246
100
AcDbEntity
  8
Calque_1
 62
7
100
AcDbSpline
 70
8
 71
3
 72
8
 73
4
 74
0
 40
0
 40
0
 40
0
 40
0
 40
1
 40
1
 40
1
 40
1
 10
117.233850
 20
127.014930
 30
0.0
 10
117.376209
 20
126.629178
 30
0.0
 10
117.453129
 20
126.044808
 30
0.0
 10
117.464611
 20
125.261820
 30
0.0
  0
LWPOLYLINE
  5
247
100
AcDbEntity
  8
Calque_1
 62
7
100
AcDbPolyline
 90
2
 70
0
 10
116.517451
 20
123.780802
 30
0.0
 10
117.464611
 20
123.780802
 30
0.0
  0
SPLINE
  5
248
100
AcDbEntity
  8
Calque_1
 62
7
100
AcDbSpline
 70
8
 71
3
 72
8
 73
4
 74
0
 40
0
 40
0
 40
0
 40
0
 40
1
 40
1
 40
1
 40
1
 10
113.117996
 20
124.793407
 30
0.0
 10
113.117996
 20
124.235442
 30
0.0
 10
113.143255
 20
123.812950
 30
0.0
 10
113.193772
 20
123.525932
 30
0.0
  0
SPLINE
  5
249
100
AcDbEntity
  8
Calque_1
 62
7
100
AcDbSpline
 70
8
 71
3
 72
8
 73
4
 74
0
 40
0
 40
0
 40
0
 40
0
 40
1
 40
1
 40
1
 40
1
 10
113.193772
 20
123.525932
 30
0.0
 10
113.246583
 20
123.238911
 30
0.0
 10
113.388944
 20
123.009296
 30
0.0
 10
113.620853
 20
122.837085
 30
0.0
  0
SPLINE
  5
24a
100
AcDbEntity
  8
Calque_1
 62
7
100
AcDbSpline
 70
8
 71
3
 72
8
 73
4
 74
0
 40
0
 40
0
 40
0
 40
0
 40
1
 40
1
 40
1
 40
1
 10
113.620853
 20
122.837085
 30
0.0
 10
113.855062
 20
122.664874
 30
0.0
 10
114.228187
 20
122.578768
 30
0.0
 10
114.740227
 20
122.578768
 30
0.0
  0
LWPOLYLINE
  5
24b
100
AcDbEntity
  8
Calque_1
 62
7
100
AcDbPolyline
 90
3
 70
0
 10
117.464611
 20
125.261820
 30
0.0
 10
117.464611
 20
124.793407
 30
0.0
 10
113.117996
 20
124.793407
 30
0.0
  0
SPLINE
  5
24c
100
AcDbEntity
  8
Calque_1
 62
7
100
AcDbSpline
 70
8
 71
3
 72
8
 73
4
 74
0
 40
0
 40
0
 40
0
 40
0
 40
1
 40
1
 40
1
 40
1
 10
114.981325
 20
122.578768
 30
0.0
 10
115.486477
 20
122.578768
 30
0.0
 10
115.868786
 20
122.638468
 30
0.0
 10
116.128252
 20
122.757867
 30
0.0
  0
SPLINE
  5
24d
100
AcDbEntity
  8
Calque_1
 62
7
100
AcDbSpline
 70
8
 71
3
 72
8
 73
4
 74
0
 40
0
 40
0
 40
0
 40
0
 40
1
 40
1
 40
1
 40
1
 10
116.128252
 20
122.757867
 30
0.0
 10
116.387718
 20
122.879564
 30
0.0
 10
116.517451
 20
123.153954
 30
0.0
 10
116.517451
 20
123.581039
 30
0.0
  0
LWPOLYLINE
  5
24e
100
AcDbEntity
  8
Calque_1
 62
7
100
AcDbPolyline
 90
2
 70
0
 10
114.740227
 20
122.578768
 30
0.0
 10
114.981325
 20
122.578768
 30
0.0
  0
SPLINE
  5
24f
100
AcDbEntity
  8
Calque_1
 62
7
100
AcDbSpline
 70
8
 71
3
 72
8
 73
4
 74
0
 40
0
 40
0
 40
0
 40
0
 40
1
 40
1
 40
1
 40
1
 10
116.534662
 20
125.499472
 30
0.0
 10
116.534662
 20
126.043659
 30
0.0
 10
116.499072
 20
126.442041
 30
0.0
 10
116.427893
 20
126.694618
 30
0.0
  0
SPLINE
  5
250
100
AcDbEntity
  8
Calque_1
 62
7
100
AcDbSpline
 70
8
 71
3
 72
8
 73
4
 74
0
 40
0
 40
0
 40
0
 40
0
 40
1
 40
1
 40
1
 40
1
 10
116.427893
 20
126.694618
 30
0.0
 10
116.359008
 20
126.947195
 30
0.0
 10
116.204017
 20
127.123999
 30
0.0
 10
115.962922
 20
127.225030
 30
0.0
  0
SPLINE
  5
251
100
AcDbEntity
  8
Calque_1
 62
7
100
AcDbSpline
 70
8
 71
3
 72
8
 73
4
 74
0
 40
0
 40
0
 40
0
 40
0
 40
1
 40
1
 40
1
 40
1
 10
115.962922
 20
127.225030
 30
0.0
 10
115.724121
 20
127.326059
 30
0.0
 10
115.340663
 20
127.376574
 30
0.0
 10
114.812550
 20
127.376574
 30
0.0
  0
SPLINE
  5
252
100
AcDbEntity
  8
Calque_1
 62
7
100
AcDbSpline
 70
8
 71
3
 72
8
 73
4
 74
0
 40
0
 40
0
 40
0
 40
0
 40
1
 40
1
 40
1
 40
1
 10
114.812550
 20
127.376574
 30
0.0
 10
114.348726
 20
127.376574
 30
0.0
 10
113.996267
 20
127.320319
 30
0.0
 10
113.755171
 20
127.207809
 30
0.0
  0
SPLINE
  5
253
100
AcDbEntity
  8
Calque_1
 62
7
100
AcDbSpline
 70
8
 71
3
 72
8
 73
4
 74
0
 40
0
 40
0
 40
0
 40
0
 40
1
 40
1
 40
1
 40
1
 10
113.755171
 20
127.207809
 30
0.0
 10
113.514075
 20
127.097593
 30
0.0
 10
113.347605
 20
126.910457
 30
0.0
 10
113.255760
 20
126.646399
 30
0.0
  0
SPLINE
  5
254
100
AcDbEntity
  8
Calque_1
 62
7
100
AcDbSpline
 70
8
 71
3
 72
8
 73
4
 74
0
 40
0
 40
0
 40
0
 40
0
 40
1
 40
1
 40
1
 40
1
 10
113.255760
 20
126.646399
 30
0.0
 10
113.163913
 20
126.382341
 30
0.0
 10
113.117989
 20
126.000032
 30
0.0
 10
113.117989
 20
125.499472
 30
0.0
  0
LWPOLYLINE
  5
255
100
AcDbEntity
  8
Calque_1
 62
7
100
AcDbPolyline
 90
2
 70
0
 10
116.517451
 20
123.581039
 30
0.0
 10
116.517451
 20
123.780802
 30
0.0
  0
LWPOLYLINE
  5
256
100
AcDbEntity
  8
Calque_1
 62
7
100
AcDbPolyline
 90
2
 70
0
 10
113.117989
 20
125.499472
 30
0.0
 10
116.534662
 20
125.499472
 30
0.0
  0
LWPOLYLINE
  5
257
100
AcDbEntity
  8
Calque_1
 62
7
100
AcDbPolyline
 90
6
 70
1
 10
122.713604
 20
130.579708
 30
0.0
 10
122.713604
 20
122.833639
 30
0.0
 10
127.087774
 20
122.833639
 30
0.0
 10
127.087774
 20
121.931253
 30
0.0
 10
121.670005
 20
121.931253
 30
0.0
 10
121.670005
 20
130.579708
 30
0.0
  0
SPLINE
  5
258
100
AcDbEntity
  8
Calque_1
 62
7
100
AcDbSpline
 70
8
 71
3
 72
8
 73
4
 74
0
 40
0
 40
0
 40
0
 40
0
 40
1
 40
1
 40
1
 40
1
 10
129.174975
 20
123.553484
 30
0.0
 10
129.174975
 20
123.188397
 30
0.0
 10
129.230083
 20
122.939264
 30
0.0
 10
129.340298
 20
122.806087
 30
0.0
  0
SPLINE
  5
259
100
AcDbEntity
  8
Calque_1
 62
7
100
AcDbSpline
 70
8
 71
3
 72
8
 73
4
 74
0
 40
0
 40
0
 40
0
 40
0
 40
1
 40
1
 40
1
 40
1
 10
129.340298
 20
122.806087
 30
0.0
 10
129.450513
 20
122.675206
 30
0.0
 10
129.677832
 20
122.609766
 30
0.0
 10
130.022254
 20
122.609766
 30
0.0
  0
SPLINE
  5
25a
100
AcDbEntity
  8
Calque_1
 62
7
100
AcDbSpline
 70
8
 71
3
 72
8
 73
4
 74
0
 40
0
 40
0
 40
0
 40
0
 40
1
 40
1
 40
1
 40
1
 10
130.022254
 20
122.609766
 30
0.0
 10
130.398822
 20
122.609766
 30
0.0
 10
130.638770
 20
122.693576
 30
0.0
 10
130.742099
 20
122.861194
 30
0.0
  0
SPLINE
  5
25b
100
AcDbEntity
  8
Calque_1
 62
7
100
AcDbSpline
 70
8
 71
3
 72
8
 73
4
 74
0
 40
0
 40
0
 40
0
 40
0
 40
1
 40
1
 40
1
 40
1
 10
130.742099
 20
122.861194
 30
0.0
 10
130.845425
 20
123.028813
 30
0.0
 10
130.897088
 20
123.302055
 30
0.0
 10
130.897088
 20
123.680921
 30
0.0
  0
LWPOLYLINE
  5
25c
100
AcDbEntity
  8
Calque_1
 62
7
100
AcDbPolyline
 90
4
 70
0
 10
131.503272
 20
127.982758
 30
0.0
 10
131.503272
 20
127.249140
 30
0.0
 10
129.174975
 20
127.249140
 30
0.0
 10
129.174975
 20
123.553484
 30
0.0
  0
SPLINE
  5
25d
100
AcDbEntity
  8
Calque_1
 62
7
100
AcDbSpline
 70
8
 71
3
 72
8
 73
4
 74
0
 40
0
 40
0
 40
0
 40
0
 40
1
 40
1
 40
1
 40
1
 10
131.740924
 20
124.059786
 30
0.0
 10
131.740924
 20
123.325018
 30
0.0
 10
131.629560
 20
122.775089
 30
0.0
 10
131.406832
 20
122.410000
 30
0.0
  0
SPLINE
  5
25e
100
AcDbEntity
  8
Calque_1
 62
7
100
AcDbSpline
 70
8
 71
3
 72
8
 73
4
 74
0
 40
0
 40
0
 40
0
 40
0
 40
1
 40
1
 40
1
 40
1
 10
131.406832
 20
122.410000
 30
0.0
 10
131.186402
 20
122.044913
 30
0.0
 10
130.724876
 20
121.862369
 30
0.0
 10
130.022254
 20
121.862369
 30
0.0
  0
SPLINE
  5
25f
100
AcDbEntity
  8
Calque_1
 62
7
100
AcDbSpline
 70
8
 71
3
 72
8
 73
4
 74
0
 40
0
 40
0
 40
0
 40
0
 40
1
 40
1
 40
1
 40
1
 10
130.022254
 20
121.862369
 30
0.0
 10
129.574504
 20
121.862369
 30
0.0
 10
129.223193
 20
121.914032
 30
0.0
 10
128.968321
 20
122.017358
 30
0.0
  0
SPLINE
  5
260
100
AcDbEntity
  8
Calque_1
 62
7
100
AcDbSpline
 70
8
 71
3
 72
8
 73
4
 74
0
 40
0
 40
0
 40
0
 40
0
 40
1
 40
1
 40
1
 40
1
 10
128.968321
 20
122.017358
 30
0.0
 10
128.715744
 20
122.120684
 30
0.0
 10
128.534348
 20
122.294044
 30
0.0
 10
128.424133
 20
122.537437
 30
0.0
  0
SPLINE
  5
261
100
AcDbEntity
  8
Calque_1
 62
7
100
AcDbSpline
 70
8
 71
3
 72
8
 73
4
 74
0
 40
0
 40
0
 40
0
 40
0
 40
1
 40
1
 40
1
 40
1
 10
128.424133
 20
122.537437
 30
0.0
 10
128.313917
 20
122.780830
 30
0.0
 10
128.258810
 20
123.119512
 30
0.0
 10
128.258810
 20
123.553484
 30
0.0
  0
LWPOLYLINE
  5
262
100
AcDbEntity
  8
Calque_1
 62
7
100
AcDbPolyline
 90
3
 70
0
 10
130.897088
 20
123.680921
 30
0.0
 10
130.897088
 20
124.059786
 30
0.0
 10
131.740924
 20
124.059786
 30
0.0
  0
LWPOLYLINE
  5
263
100
AcDbEntity
  8
Calque_1
 62
7
100
AcDbPolyline
 90
9
 70
0
 10
128.258810
 20
123.553484
 30
0.0
 10
128.258810
 20
127.249140
 30
0.0
 10
127.466639
 20
127.249140
 30
0.0
 10
127.466639
 20
127.982758
 30
0.0
 10
128.258810
 20
127.982758
 30
0.0
 10
128.258810
 20
129.436223
 30
0.0
 10
129.174975
 20
129.436223
 30
0.0
 10
129.174975
 20
127.982758
 30
0.0
 10
131.503272
 20
127.982758
 30
0.0
  0
SPLINE
  5
264
100
AcDbEntity
  8
Calque_1
 62
7
100
AcDbSpline
 70
8
 71
3
 72
8
 73
4
 74
0
 40
0
 40
0
 40
0
 40
0
 40
1
 40
1
 40
1
 40
1
 10
136.707498
 20
122.706205
 30
0.0
 10
136.567433
 20
122.481183
 30
0.0
 10
136.397519
 20
122.306675
 30
0.0
 10
136.197753
 20
122.182681
 30
0.0
  0
SPLINE
  5
265
100
AcDbEntity
  8
Calque_1
 62
7
100
AcDbSpline
 70
8
 71
3
 72
8
 73
4
 74
0
 40
0
 40
0
 40
0
 40
0
 40
1
 40
1
 40
1
 40
1
 10
136.197753
 20
122.182681
 30
0.0
 10
136.000283
 20
122.060985
 30
0.0
 10
135.784444
 20
121.977175
 30
0.0
 10
135.550238
 20
121.931253
 30
0.0
  0
SPLINE
  5
266
100
AcDbEntity
  8
Calque_1
 62
7
100
AcDbSpline
 70
8
 71
3
 72
8
 73
4
 74
0
 40
0
 40
0
 40
0
 40
0
 40
1
 40
1
 40
1
 40
1
 10
135.550238
 20
121.931253
 30
0.0
 10
135.318326
 20
121.885330
 30
0.0
 10
135.049676
 20
121.862369
 30
0.0
 10
134.744288
 20
121.862369
 30
0.0
  0
SPLINE
  5
267
100
AcDbEntity
  8
Calque_1
 62
7
100
AcDbSpline
 70
8
 71
3
 72
8
 73
4
 74
0
 40
0
 40
0
 40
0
 40
0
 40
1
 40
1
 40
1
 40
1
 10
134.744288
 20
121.862369
 30
0.0
 10
134.216174
 20
121.862369
 30
0.0
 10
133.789090
 20
121.935846
 30
0.0
 10
133.463036
 20
122.082800
 30
0.0
  0
SPLINE
  5
268
100
AcDbEntity
  8
Calque_1
 62
7
100
AcDbSpline
 70
8
 71
3
 72
8
 73
4
 74
0
 40
0
 40
0
 40
0
 40
0
 40
1
 40
1
 40
1
 40
1
 10
133.463036
 20
122.082800
 30
0.0
 10
133.139280
 20
122.229753
 30
0.0
 10
132.895888
 20
122.437555
 30
0.0
 10
132.732861
 20
122.706205
 30
0.0
  0
SPLINE
  5
269
100
AcDbEntity
  8
Calque_1
 62
7
100
AcDbSpline
 70
8
 71
3
 72
8
 73
4
 74
0
 40
0
 40
0
 40
0
 40
0
 40
1
 40
1
 40
1
 40
1
 10
132.732861
 20
122.706205
 30
0.0
 10
132.572129
 20
122.977150
 30
0.0
 10
132.465357
 20
123.296315
 30
0.0
 10
132.412546
 20
123.663699
 30
0.0
  0
SPLINE
  5
26a
100
AcDbEntity
  8
Calque_1
 62
7
100
AcDbSpline
 70
8
 71
3
 72
8
 73
4
 74
0
 40
0
 40
0
 40
0
 40
0
 40
1
 40
1
 40
1
 40
1
 10
132.412546
 20
123.663699
 30
0.0
 10
132.359736
 20
124.031083
 30
0.0
 10
132.333332
 20
124.488017
 30
0.0
 10
132.333332
 20
125.034502
 30
0.0
  0
SPLINE
  5
26b
100
AcDbEntity
  8
Calque_1
 62
7
100
AcDbSpline
 70
8
 71
3
 72
8
 73
4
 74
0
 40
0
 40
0
 40
0
 40
0
 40
1
 40
1
 40
1
 40
1
 10
132.333332
 20
125.034502
 30
0.0
 10
132.333332
 20
125.695793
 30
0.0
 10
132.389587
 20
126.239981
 30
0.0
 10
132.502097
 20
126.667066
 30
0.0
  0
SPLINE
  5
26c
100
AcDbEntity
  8
Calque_1
 62
7
100
AcDbSpline
 70
8
 71
3
 72
8
 73
4
 74
0
 40
0
 40
0
 40
0
 40
0
 40
1
 40
1
 40
1
 40
1
 10
132.502097
 20
126.667066
 30
0.0
 10
132.614609
 20
127.096446
 30
0.0
 10
132.837336
 20
127.435127
 30
0.0
 10
133.170276
 20
127.683110
 30
0.0
  0
SPLINE
  5
26d
100
AcDbEntity
  8
Calque_1
 62
7
100
AcDbSpline
 70
8
 71
3
 72
8
 73
4
 74
0
 40
0
 40
0
 40
0
 40
0
 40
1
 40
1
 40
1
 40
1
 10
133.170276
 20
127.683110
 30
0.0
 10
133.505514
 20
127.931095
 30
0.0
 10
133.988854
 20
128.055087
 30
0.0
 10
134.620296
 20
128.055087
 30
0.0
  0
SPLINE
  5
26e
100
AcDbEntity
  8
Calque_1
 62
7
100
AcDbSpline
 70
8
 71
3
 72
8
 73
4
 74
0
 40
0
 40
0
 40
0
 40
0
 40
1
 40
1
 40
1
 40
1
 10
134.620296
 20
128.055087
 30
0.0
 10
135.123153
 20
128.055087
 30
0.0
 10
135.551385
 20
128.002275
 30
0.0
 10
135.904993
 20
127.896652
 30
0.0
  0
SPLINE
  5
26f
100
AcDbEntity
  8
Calque_1
 62
7
100
AcDbSpline
 70
8
 71
3
 72
8
 73
4
 74
0
 40
0
 40
0
 40
0
 40
0
 40
1
 40
1
 40
1
 40
1
 10
135.904993
 20
127.896652
 30
0.0
 10
136.260896
 20
127.791029
 30
0.0
 10
136.513473
 20
127.566006
 30
0.0
 10
136.662724
 20
127.221585
 30
0.0
  0
LWPOLYLINE
  5
270
100
AcDbEntity
  8
Calque_1
 62
7
100
AcDbPolyline
 90
4
 70
0
 10
137.551334
 20
130.552152
 30
0.0
 10
137.551334
 20
121.931253
 30
0.0
 10
136.662724
 20
121.931253
 30
0.0
 10
136.707498
 20
122.706205
 30
0.0
  0
SPLINE
  5
271
100
AcDbEntity
  8
Calque_1
 62
7
100
AcDbSpline
 70
8
 71
3
 72
8
 73
4
 74
0
 40
0
 40
0
 40
0
 40
0
 40
1
 40
1
 40
1
 40
1
 10
133.277049
 20
125.062054
 30
0.0
 10
133.277049
 20
124.366321
 30
0.0
 10
133.319527
 20
123.849687
 30
0.0
 10
133.404483
 20
123.512152
 30
0.0
  0
SPLINE
  5
272
100
AcDbEntity
  8
Calque_1
 62
7
100
AcDbSpline
 70
8
 71
3
 72
8
 73
4
 74
0
 40
0
 40
0
 40
0
 40
0
 40
1
 40
1
 40
1
 40
1
 10
133.404483
 20
123.512152
 30
0.0
 10
133.496330
 20
123.151657
 30
0.0
 10
133.667393
 20
122.905969
 30
0.0
 10
133.917673
 20
122.775089
 30
0.0
  0
SPLINE
  5
273
100
AcDbEntity
  8
Calque_1
 62
7
100
AcDbSpline
 70
8
 71
3
 72
8
 73
4
 74
0
 40
0
 40
0
 40
0
 40
0
 40
1
 40
1
 40
1
 40
1
 10
133.917673
 20
122.775089
 30
0.0
 10
134.167955
 20
122.644209
 30
0.0
 10
134.500897
 20
122.578768
 30
0.0
 10
134.916498
 20
122.578768
 30
0.0
  0
SPLINE
  5
274
100
AcDbEntity
  8
Calque_1
 62
7
100
AcDbSpline
 70
8
 71
3
 72
8
 73
4
 74
0
 40
0
 40
0
 40
0
 40
0
 40
1
 40
1
 40
1
 40
1
 10
134.916498
 20
122.578768
 30
0.0
 10
135.449207
 20
122.578768
 30
0.0
 10
135.840701
 20
122.663725
 30
0.0
 10
136.090980
 20
122.833639
 30
0.0
  0
SPLINE
  5
275
100
AcDbEntity
  8
Calque_1
 62
7
100
AcDbSpline
 70
8
 71
3
 72
8
 73
4
 74
0
 40
0
 40
0
 40
0
 40
0
 40
1
 40
1
 40
1
 40
1
 10
136.090980
 20
122.833639
 30
0.0
 10
136.343557
 20
123.003555
 30
0.0
 10
136.501992
 20
123.238911
 30
0.0
 10
136.566285
 20
123.539708
 30
0.0
  0
SPLINE
  5
276
100
AcDbEntity
  8
Calque_1
 62
7
100
AcDbSpline
 70
8
 71
3
 72
8
 73
4
 74
0
 40
0
 40
0
 40
0
 40
0
 40
1
 40
1
 40
1
 40
1
 10
136.566285
 20
123.539708
 30
0.0
 10
136.630578
 20
123.842799
 30
0.0
 10
136.662724
 20
124.280215
 30
0.0
 10
136.662724
 20
124.851957
 30
0.0
  0
SPLINE
  5
277
100
AcDbEntity
  8
Calque_1
 62
7
100
AcDbSpline
 70
8
 71
3
 72
8
 73
4
 74
0
 40
0
 40
0
 40
0
 40
0
 40
1
 40
1
 40
1
 40
1
 10
136.662724
 20
124.851957
 30
0.0
 10
136.662724
 20
125.318075
 30
0.0
 10
136.650094
 20
125.683163
 30
0.0
 10
136.624835
 20
125.947221
 30
0.0
  0
SPLINE
  5
278
100
AcDbEntity
  8
Calque_1
 62
7
100
AcDbSpline
 70
8
 71
3
 72
8
 73
4
 74
0
 40
0
 40
0
 40
0
 40
0
 40
1
 40
1
 40
1
 40
1
 10
136.624835
 20
125.947221
 30
0.0
 10
136.601886
 20
126.211279
 30
0.0
 10
136.536446
 20
126.447783
 30
0.0
 10
136.428514
 20
126.656732
 30
0.0
  0
SPLINE
  5
279
100
AcDbEntity
  8
Calque_1
 62
7
100
AcDbSpline
 70
8
 71
3
 72
8
 73
4
 74
0
 40
0
 40
0
 40
0
 40
0
 40
1
 40
1
 40
1
 40
1
 10
136.428514
 20
126.656732
 30
0.0
 10
136.322891
 20
126.867979
 30
0.0
 10
136.147235
 20
127.031006
 30
0.0
 10
135.901548
 20
127.145813
 30
0.0
  0
SPLINE
  5
27a
100
AcDbEntity
  8
Calque_1
 62
7
100
AcDbSpline
 70
8
 71
3
 72
8
 73
4
 74
0
 40
0
 40
0
 40
0
 40
0
 40
1
 40
1
 40
1
 40
1
 10
135.901548
 20
127.145813
 30
0.0
 10
135.658157
 20
127.262915
 30
0.0
 10
135.319475
 20
127.321466
 30
0.0
 10
134.885501
 20
127.321466
 30
0.0
  0
SPLINE
  5
27b
100
AcDbEntity
  8
Calque_1
 62
7
100
AcDbSpline
 70
8
 71
3
 72
8
 73
4
 74
0
 40
0
 40
0
 40
0
 40
0
 40
1
 40
1
 40
1
 40
1
 10
134.885501
 20
127.321466
 30
0.0
 10
134.375755
 20
127.321466
 30
0.0
 10
134.004927
 20
127.236509
 30
0.0
 10
133.773018
 20
127.066596
 30
0.0
  0
SPLINE
  5
27c
100
AcDbEntity
  8
Calque_1
 62
7
100
AcDbSpline
 70
8
 71
3
 72
8
 73
4
 74
0
 40
0
 40
0
 40
0
 40
0
 40
1
 40
1
 40
1
 40
1
 10
133.773018
 20
127.066596
 30
0.0
 10
133.543401
 20
126.896680
 30
0.0
 10
133.403335
 20
126.665916
 30
0.0
 10
133.352821
 20
126.374306
 30
0.0
  0
SPLINE
  5
27d
100
AcDbEntity
  8
Calque_1
 62
7
100
AcDbSpline
 70
8
 71
3
 72
8
 73
4
 74
0
 40
0
 40
0
 40
0
 40
0
 40
1
 40
1
 40
1
 40
1
 10
133.352821
 20
126.374306
 30
0.0
 10
133.302306
 20
126.082694
 30
0.0
 10
133.277049
 20
125.645276
 30
0.0
 10
133.277049
 20
125.062054
 30
0.0
  0
LWPOLYLINE
  5
27e
100
AcDbEntity
  8
Calque_1
 62
7
100
AcDbPolyline
 90
3
 70
0
 10
136.662724
 20
127.221585
 30
0.0
 10
136.662724
 20
130.552152
 30
0.0
 10
137.551334
 20
130.552152
 30
0.0
  0
LWPOLYLINE
  5
27f
100
AcDbEntity
  8
Calque_1
 62
7
100
AcDbPolyline
 90
1
 70
1
 10
133.277049
 20
125.062054
 30
0.0
  0
LWPOLYLINE
  5
280
100
AcDbEntity
  8
Calque_1
 62
7
100
AcDbPolyline
 90
6
 70
1
 10
44.697830
 20
125.365644
 30
0.0
 10
56.378932
 20
126.244358
 30
0.0
 10
68.060038
 20
127.123071
 30
0.0
 10
68.187454
 20
125.393785
 30
0.0
 10
68.314870
 20
123.664499
 30
0.0
 10
56.506351
 20
124.515071
 30
0.0
  0
LWPOLYLINE
  5
281
100
AcDbEntity
  8
Calque_1
 62
7
100
AcDbPolyline
 90
6
 70
1
 10
165.302101
 20
125.365574
 30
0.0
 10
153.620999
 20
126.244288
 30
0.0
 10
141.939893
 20
127.123001
 30
0.0
 10
141.812477
 20
125.393715
 30
0.0
 10
141.685061
 20
123.664429
 30
0.0
 10
153.493580
 20
124.515001
 30
0.0
  0
ENDSEC
  0
SECTION
  2
OBJECTS
  0
DICTIONARY
  5
C
330
0
100
AcDbDictionary
  3
ACAD_GROUP
350
D
  3
ACAD_MLINESTYLE
350
17
  0
DICTIONARY
  5
D
330
C
100
AcDbDictionary
  0
DICTIONARY
  5
1A
330
C
100
AcDbDictionary
  0
DICTIONARY
  5
17
330
C
100
AcDbDictionary
  3
STANDARD
350
18
  0
DICTIONARY
  5
19
330
C
100
AcDbDictionary
  0
ENDSEC
  0
EOF
